# This file uses centimeters as units for non-parametric coordinates.

mtllib mirror.mtl
g default
v -3.289326 6.584066 -27.194736
v 0.560763 6.584066 -27.194736
v -3.289326 13.925209 -27.194736
v 0.560763 13.925209 -27.194736
v -3.289326 13.925209 -27.242383
v 0.560763 13.925209 -27.242383
v -3.289326 6.584066 -27.242383
v 0.560763 6.584066 -27.242383
v -3.225946 6.626648 -27.140633
v 0.497383 6.626648 -27.140633
v 0.497383 13.882627 -27.140633
v -3.225946 13.882627 -27.140633
vt 0.416581 0.001838
vt 0.498322 0.001838
vt 0.498322 0.601911
vt 0.416581 0.601911
vt 0.323764 0.598431
vt 0.323764 0.005318
vt 0.505017 0.001838
vt 0.586758 0.001838
vt 0.586758 0.601911
vt 0.505017 0.601911
vt 0.679575 0.005318
vt 0.679575 0.598431
vt 0.916267 0.913652
vt 0.916267 0.598941
vt 0.998008 0.598941
vt 0.998008 0.913652
vt 0.823450 0.908472
vt 0.823450 0.604122
vt 0.642756 0.920614
vt 0.642756 0.605903
vt 0.724498 0.605903
vt 0.724498 0.920614
vt 0.817315 0.611084
vt 0.817315 0.915433
vt 0.686269 0.001838
vt 0.990619 0.001838
vt 0.990619 0.594950
vt 0.686269 0.594950
vt 0.001992 0.001838
vt 0.316703 0.001838
vt 0.316703 0.601911
vt 0.001992 0.601911
vn 0.000000 0.000000 1.000000
vn 0.000000 0.000000 1.000000
vn 0.000000 0.000000 1.000000
vn 0.000000 0.000000 1.000000
vn 0.000000 0.925853 0.377884
vn 0.000000 0.925853 0.377884
vn 0.000000 1.000000 0.000000
vn 0.000000 1.000000 0.000000
vn 0.000000 0.000000 -1.000000
vn 0.000000 0.000000 -1.000000
vn 0.000000 0.000000 -1.000000
vn 0.000000 0.000000 -1.000000
vn 0.000000 -1.000000 0.000000
vn 0.000000 -1.000000 0.000000
vn 0.000000 -0.925852 0.377887
vn 0.000000 -0.925852 0.377887
vn 0.852122 0.000000 0.523344
vn 1.000000 0.000000 0.000000
vn 1.000000 0.000000 0.000000
vn 0.852122 0.000000 0.523344
vn -1.000000 0.000000 0.000000
vn -0.852122 0.000000 0.523344
vn -0.852122 0.000000 0.523344
vn -1.000000 0.000000 0.000000
vn 0.000000 -0.785807 0.618472
vn 0.000000 -0.785807 0.618472
vn 0.649247 0.000000 0.760578
vn 0.649247 0.000000 0.760578
vn 0.000000 0.785810 0.618468
vn 0.000000 0.785810 0.618468
vn -0.649247 0.000000 0.760578
vn -0.649247 0.000000 0.760578
s off
g pCube78
usemtl initialShadingGroup
f 9/25/1 10/26/2 11/27/3 12/28/4
s 1
f 3/13/5 4/14/6 6/15/7 5/16/8
s off
f 5/29/9 6/30/10 8/31/11 7/32/12
s 2
f 7/19/13 8/20/14 2/21/15 1/22/16
s 3
f 2/1/17 8/2/18 6/3/19 4/4/20
s 4
f 7/7/21 1/8/22 3/9/23 5/10/24
s 2
f 1/22/16 2/21/15 10/23/25 9/24/26
s 3
f 2/1/17 4/4/20 11/5/27 10/6/28
s 1
f 4/14/6 3/13/5 12/17/29 11/18/30
s 4
f 3/9/23 1/8/22 9/11/31 12/12/32
