# This file uses centimeters as units for non-parametric coordinates.

mtllib twist.mtl
g default
v 11.923523 3.900537 -26.703694
v 11.895271 3.955984 -26.703694
v 11.851268 3.999987 -26.703694
v 11.795821 4.028238 -26.703694
v 11.734358 4.037973 -26.703694
v 11.672894 4.028238 -26.703694
v 11.617447 3.999987 -26.703694
v 11.573444 3.955984 -26.703694
v 11.545193 3.900537 -26.703694
v 11.535458 3.839073 -26.703694
v 11.545193 3.777610 -26.703694
v 11.573444 3.722163 -26.703694
v 11.617447 3.678160 -26.703694
v 11.672894 3.649908 -26.703694
v 11.734358 3.640173 -26.703694
v 11.795821 3.649908 -26.703694
v 11.851268 3.678160 -26.703694
v 11.895271 3.722163 -26.703694
v 11.923523 3.777610 -26.703694
v 11.933257 3.839073 -26.703694
v 11.734358 3.839073 -26.567246
v 11.923523 3.900537 -26.577795
v 11.913365 3.897236 -26.567246
v 11.895271 3.955984 -26.577795
v 11.886630 3.949706 -26.567246
v 11.851268 3.999987 -26.577795
v 11.844990 3.991346 -26.567246
v 11.795821 4.028238 -26.577795
v 11.792521 4.018080 -26.567246
v 11.734358 4.037973 -26.577795
v 11.734358 4.027293 -26.567246
v 11.672894 4.028238 -26.577795
v 11.676195 4.018080 -26.567246
v 11.617447 3.999987 -26.577795
v 11.623725 3.991346 -26.567246
v 11.573444 3.955984 -26.577795
v 11.582085 3.949706 -26.567246
v 11.545193 3.900537 -26.577795
v 11.555350 3.897236 -26.567246
v 11.535458 3.839073 -26.577795
v 11.546138 3.839073 -26.567246
v 11.545193 3.777610 -26.577795
v 11.555350 3.780910 -26.567246
v 11.573444 3.722163 -26.577795
v 11.582085 3.728441 -26.567246
v 11.617447 3.678160 -26.577795
v 11.623725 3.686801 -26.567246
v 11.672894 3.649908 -26.577795
v 11.676195 3.660066 -26.567246
v 11.734358 3.640173 -26.577795
v 11.734358 3.650854 -26.567246
v 11.795821 3.649908 -26.577795
v 11.792521 3.660066 -26.567246
v 11.851268 3.678160 -26.577795
v 11.844990 3.686801 -26.567246
v 11.895271 3.722163 -26.577795
v 11.886630 3.728441 -26.567246
v 11.923523 3.777610 -26.577795
v 11.913365 3.780910 -26.567246
v 11.933257 3.839073 -26.577795
v 11.922577 3.839073 -26.567246
vt 0.625000 0.659375
vt 0.624664 0.688440
vt 0.612835 0.688440
vt 0.375336 0.688440
vt 0.387164 0.688440
vt 0.387836 0.688440
vt 0.399664 0.688440
vt 0.400336 0.688440
vt 0.412164 0.688440
vt 0.412836 0.688440
vt 0.424664 0.688440
vt 0.425336 0.688440
vt 0.437164 0.688440
vt 0.437836 0.688440
vt 0.449664 0.688440
vt 0.450336 0.688440
vt 0.462164 0.688440
vt 0.462836 0.688440
vt 0.474664 0.688440
vt 0.475336 0.688440
vt 0.487164 0.688440
vt 0.487835 0.688440
vt 0.499664 0.688440
vt 0.500336 0.688440
vt 0.512164 0.688440
vt 0.512836 0.688440
vt 0.524664 0.688440
vt 0.525335 0.688440
vt 0.537164 0.688440
vt 0.537835 0.688440
vt 0.549664 0.688440
vt 0.550335 0.688440
vt 0.562164 0.688440
vt 0.562835 0.688440
vt 0.574664 0.688440
vt 0.575335 0.688440
vt 0.587164 0.688440
vt 0.587835 0.688440
vt 0.599664 0.688440
vt 0.600335 0.688440
vt 0.612164 0.688440
vt 0.375000 0.312500
vt 0.375000 0.659375
vt 0.387500 0.312500
vt 0.387500 0.659375
vt 0.400000 0.312500
vt 0.400000 0.659375
vt 0.412500 0.312500
vt 0.412500 0.659375
vt 0.425000 0.312500
vt 0.425000 0.659375
vt 0.437500 0.312500
vt 0.437500 0.659375
vt 0.450000 0.312500
vt 0.450000 0.659375
vt 0.462500 0.312500
vt 0.462500 0.659375
vt 0.475000 0.312500
vt 0.475000 0.659375
vt 0.487500 0.312500
vt 0.487500 0.659375
vt 0.500000 0.312500
vt 0.500000 0.659375
vt 0.512500 0.312500
vt 0.512500 0.659375
vt 0.525000 0.312500
vt 0.525000 0.659375
vt 0.537500 0.312500
vt 0.537500 0.659375
vt 0.550000 0.312500
vt 0.550000 0.659375
vt 0.562500 0.312500
vt 0.562500 0.659375
vt 0.575000 0.312500
vt 0.575000 0.659375
vt 0.587500 0.312500
vt 0.587500 0.659375
vt 0.600000 0.312500
vt 0.600000 0.659375
vt 0.612500 0.312500
vt 0.625000 0.312500
vt 0.612500 0.659375
vt 0.619621 0.930324
vt 0.586910 0.963035
vt 0.545691 0.984037
vt 0.500000 0.991274
vt 0.454309 0.984037
vt 0.413090 0.963035
vt 0.380379 0.930324
vt 0.359377 0.889106
vt 0.352140 0.843414
vt 0.359377 0.797723
vt 0.380379 0.756505
vt 0.413090 0.723793
vt 0.454309 0.702791
vt 0.500000 0.695555
vt 0.545691 0.702791
vt 0.586910 0.723793
vt 0.619621 0.756505
vt 0.640623 0.797723
vt 0.647860 0.843414
vt 0.640623 0.889106
vt 0.500000 0.837500
vn 0.668320 0.217149 0.711474
vn 0.668320 0.217149 0.711474
vn 0.702713 -0.000001 0.711473
vn 0.702713 -0.000001 0.711473
vn 0.568507 0.413044 0.711473
vn 0.568507 0.413044 0.711474
vn 0.413044 0.568507 0.711473
vn 0.413044 0.568507 0.711473
vn 0.217150 0.668320 0.711473
vn 0.217150 0.668320 0.711473
vn -0.000000 0.702713 0.711473
vn -0.000000 0.702713 0.711473
vn -0.217151 0.668320 0.711473
vn -0.217151 0.668320 0.711473
vn -0.413045 0.568507 0.711473
vn -0.413045 0.568507 0.711473
vn -0.568507 0.413045 0.711473
vn -0.568507 0.413045 0.711473
vn -0.668321 0.217150 0.711473
vn -0.668321 0.217150 0.711473
vn -0.702714 0.000000 0.711472
vn -0.702714 0.000000 0.711472
vn -0.668321 -0.217151 0.711473
vn -0.668321 -0.217151 0.711473
vn -0.568507 -0.413045 0.711473
vn -0.568507 -0.413045 0.711473
vn -0.413045 -0.568507 0.711473
vn -0.413045 -0.568507 0.711473
vn -0.217150 -0.668320 0.711473
vn -0.217150 -0.668320 0.711473
vn 0.000000 -0.702713 0.711473
vn 0.000000 -0.702713 0.711473
vn 0.217151 -0.668320 0.711473
vn 0.217151 -0.668320 0.711473
vn 0.413045 -0.568507 0.711473
vn 0.413045 -0.568507 0.711473
vn 0.568507 -0.413045 0.711473
vn 0.568507 -0.413045 0.711473
vn 0.668320 -0.217150 0.711473
vn 0.668320 -0.217150 0.711473
vn 0.951057 0.309016 0.000000
vn 0.809017 0.587785 0.000000
vn 0.809017 0.587785 0.000000
vn 0.951057 0.309016 0.000000
vn 0.587785 0.809017 0.000000
vn 0.587785 0.809017 0.000000
vn 0.309017 0.951057 0.000000
vn 0.309017 0.951057 0.000000
vn -0.000000 1.000000 0.000000
vn -0.000000 1.000000 0.000000
vn -0.309017 0.951056 0.000000
vn -0.309017 0.951056 0.000000
vn -0.587785 0.809017 0.000000
vn -0.587785 0.809017 0.000000
vn -0.809017 0.587785 0.000000
vn -0.809017 0.587785 0.000000
vn -0.951057 0.309017 0.000000
vn -0.951057 0.309017 0.000000
vn -1.000000 0.000000 0.000000
vn -1.000000 0.000000 0.000000
vn -0.951057 -0.309017 0.000000
vn -0.951057 -0.309017 0.000000
vn -0.809017 -0.587785 0.000000
vn -0.809017 -0.587785 0.000000
vn -0.587785 -0.809017 0.000000
vn -0.587785 -0.809017 0.000000
vn -0.309017 -0.951057 0.000000
vn -0.309017 -0.951057 0.000000
vn 0.000000 -1.000000 0.000000
vn 0.000000 -1.000000 0.000000
vn 0.309017 -0.951057 0.000000
vn 0.309017 -0.951057 0.000000
vn 0.587785 -0.809017 0.000000
vn 0.587785 -0.809017 0.000000
vn 0.809017 -0.587785 0.000000
vn 0.809017 -0.587785 0.000000
vn 0.951057 -0.309017 0.000000
vn 0.951057 -0.309017 0.000000
vn 1.000000 -0.000001 0.000000
vn 1.000000 -0.000001 0.000000
vn 0.000000 0.000000 1.000000
vn 0.000000 0.000000 1.000000
vn 0.000000 -0.000000 1.000000
vn 0.000000 0.000000 1.000000
vn 0.000000 0.000000 1.000000
vn 0.000000 0.000000 1.000000
vn 0.000000 0.000000 1.000000
vn 0.000000 0.000000 1.000000
vn 0.000000 0.000000 1.000000
vn 0.000000 0.000000 1.000000
vn 0.000000 0.000000 1.000000
vn 0.000000 0.000000 1.000000
vn 0.000000 0.000000 1.000000
vn 0.000000 0.000000 1.000000
vn 0.000000 0.000000 1.000000
vn 0.000000 -0.000000 1.000000
vn 0.000000 -0.000000 1.000000
vn 0.000000 0.000000 1.000000
vn 0.000000 0.000000 1.000000
vn 0.000000 0.000000 1.000000
vn 0.000000 0.000000 1.000000
s 1
g pCylinder41
usemtl initialShadingGroup
f 22/1/1 23/2/2 61/3/3 60/82/4
f 23/4/2 22/43/1 24/45/5 25/5/6
f 25/6/6 24/45/5 26/47/7 27/7/8
f 27/8/8 26/47/7 28/49/9 29/9/10
f 29/10/10 28/49/9 30/51/11 31/11/12
f 31/12/12 30/51/11 32/53/13 33/13/14
f 33/14/14 32/53/13 34/55/15 35/15/16
f 35/16/16 34/55/15 36/57/17 37/17/18
f 37/18/18 36/57/17 38/59/19 39/19/20
f 39/20/20 38/59/19 40/61/21 41/21/22
f 41/22/22 40/61/21 42/63/23 43/23/24
f 43/24/24 42/63/23 44/65/25 45/25/26
f 45/26/26 44/65/25 46/67/27 47/27/28
f 47/28/28 46/67/27 48/69/29 49/29/30
f 49/30/30 48/69/29 50/71/31 51/31/32
f 51/32/32 50/71/31 52/73/33 53/33/34
f 53/34/34 52/73/33 54/75/35 55/35/36
f 55/36/36 54/75/35 56/77/37 57/37/38
f 57/38/38 56/77/37 58/79/39 59/39/40
f 59/40/40 58/79/39 60/82/4 61/41/3
s 2
f 1/42/41 2/44/42 24/45/43 22/43/44
f 2/44/42 3/46/45 26/47/46 24/45/43
f 3/46/45 4/48/47 28/49/48 26/47/46
f 4/48/47 5/50/49 30/51/50 28/49/48
f 5/50/49 6/52/51 32/53/52 30/51/50
f 6/52/51 7/54/53 34/55/54 32/53/52
f 7/54/53 8/56/55 36/57/56 34/55/54
f 8/56/55 9/58/57 38/59/58 36/57/56
f 9/58/57 10/60/59 40/61/60 38/59/58
f 10/60/59 11/62/61 42/63/62 40/61/60
f 11/62/61 12/64/63 44/65/64 42/63/62
f 12/64/63 13/66/65 46/67/66 44/65/64
f 13/66/65 14/68/67 48/69/68 46/67/66
f 14/68/67 15/70/69 50/71/70 48/69/68
f 15/70/69 16/72/71 52/73/72 50/71/70
f 16/72/71 17/74/73 54/75/74 52/73/72
f 17/74/73 18/76/75 56/77/76 54/75/74
f 18/76/75 19/78/77 58/79/78 56/77/76
f 19/78/77 20/80/79 60/82/80 58/79/78
f 20/80/79 1/81/41 22/1/44 60/82/80
s 3
f 23/102/81 25/83/82 21/103/83
f 25/83/82 27/84/84 21/103/83
f 27/84/84 29/85/85 21/103/83
f 29/85/85 31/86/86 21/103/83
f 31/86/86 33/87/87 21/103/83
f 33/87/87 35/88/88 21/103/83
f 35/88/88 37/89/89 21/103/83
f 37/89/89 39/90/90 21/103/83
f 39/90/90 41/91/91 21/103/83
f 41/91/91 43/92/92 21/103/83
f 43/92/92 45/93/93 21/103/83
f 45/93/93 47/94/94 21/103/83
f 47/94/94 49/95/95 21/103/83
f 49/95/95 51/96/96 21/103/83
f 51/96/96 53/97/97 21/103/83
f 53/97/97 55/98/98 21/103/83
f 55/98/98 57/99/99 21/103/83
f 57/99/99 59/100/100 21/103/83
f 59/100/100 61/101/101 21/103/83
f 61/101/101 23/102/81 21/103/83
