# This file uses centimeters as units for non-parametric coordinates.

mtllib rooflight.mtl
g default
v -21.308290 18.617834 6.691934
v -21.357234 18.617834 7.000951
v -21.499273 18.617834 7.279720
v -21.720505 18.617834 7.500951
v -21.999273 18.617834 7.642991
v -22.308290 18.617834 7.691934
v -22.617307 18.617834 7.642991
v -22.896075 18.617834 7.500951
v -23.117307 18.617834 7.279720
v -23.259347 18.617834 7.000951
v -23.308290 18.617834 6.691934
v -23.259347 18.617834 6.382917
v -23.117307 18.617834 6.104149
v -22.896076 18.617834 5.882917
v -22.617307 18.617834 5.740877
v -22.308290 18.617834 5.691934
v -21.999273 18.617834 5.740877
v -21.720505 18.617834 5.882917
v -21.499273 18.617834 6.104149
v -21.357233 18.617834 6.382917
v -21.423877 18.543758 6.691934
v -21.500271 18.534549 6.691934
v -21.467164 18.543758 6.965233
v -21.539818 18.534549 6.941626
v -21.592785 18.543758 7.211779
v -21.654589 18.534549 7.166876
v -21.788446 18.543758 7.407439
v -21.833349 18.534549 7.345636
v -22.034992 18.543758 7.533061
v -22.058598 18.534549 7.460406
v -22.308290 18.543758 7.576347
v -22.308290 18.534549 7.499954
v -22.581589 18.543758 7.533061
v -22.557982 18.534549 7.460406
v -22.828135 18.543758 7.407439
v -22.783232 18.534549 7.345636
v -23.023795 18.543758 7.211779
v -22.961991 18.534549 7.166876
v -23.149416 18.543758 6.965233
v -23.076762 18.534549 6.941626
v -23.192703 18.543758 6.691934
v -23.116309 18.534549 6.691934
v -23.149416 18.543758 6.418636
v -23.076762 18.534549 6.442243
v -23.023795 18.543758 6.172090
v -22.961991 18.534549 6.216993
v -22.828135 18.543758 5.976429
v -22.783232 18.534549 6.038233
v -22.581589 18.543758 5.850808
v -22.557982 18.534549 5.923462
v -22.308290 18.543758 5.807521
v -22.308290 18.534549 5.883915
v -22.034991 18.543758 5.850808
v -22.058598 18.534549 5.923462
v -21.788445 18.543758 5.976429
v -21.833348 18.534549 6.038233
v -21.592785 18.543758 6.172089
v -21.654588 18.534549 6.216992
v -21.467163 18.543758 6.418636
v -21.539818 18.534549 6.442242
v -22.308290 18.427556 6.691934
v -21.659103 18.588752 6.691934
v -21.959433 18.427556 6.691934
v -21.690877 18.588752 6.892544
v -21.976507 18.427556 6.799737
v -21.783087 18.588752 7.073517
v -22.026059 18.427556 6.896987
v -21.926708 18.588752 7.217138
v -22.103237 18.427556 6.974165
v -22.107680 18.588752 7.309348
v -22.200487 18.427556 7.023717
v -22.308290 18.588752 7.341121
v -22.308290 18.427556 7.040791
v -22.508900 18.588752 7.309348
v -22.416093 18.427556 7.023717
v -22.689873 18.588752 7.217138
v -22.513343 18.427556 6.974165
v -22.833493 18.588752 7.073517
v -22.590521 18.427556 6.896987
v -22.925704 18.588752 6.892544
v -22.640073 18.427556 6.799737
v -22.957477 18.588752 6.691934
v -22.657147 18.427556 6.691934
v -22.925704 18.588752 6.491324
v -22.640073 18.427556 6.584131
v -22.833493 18.588752 6.310352
v -22.590521 18.427556 6.486881
v -22.689873 18.588752 6.166731
v -22.513343 18.427556 6.409703
v -22.508900 18.588752 6.074521
v -22.416093 18.427556 6.360151
v -22.308290 18.588752 6.042747
v -22.308290 18.427556 6.343077
v -22.107680 18.588752 6.074521
v -22.200487 18.427556 6.360151
v -21.926708 18.588752 6.166731
v -22.103237 18.427556 6.409703
v -21.783086 18.588752 6.310352
v -22.026059 18.427556 6.486881
v -21.690876 18.588752 6.491324
v -21.976507 18.427556 6.584131
v -21.981401 18.498940 6.242009
v -22.136434 18.498940 6.163016
v -22.308290 18.498940 6.135796
v -22.480146 18.498940 6.163016
v -22.635180 18.498940 6.242009
v -22.758215 18.498940 6.365045
v -22.837208 18.498940 6.520078
v -22.864428 18.498940 6.691934
v -22.837208 18.498940 6.863790
v -22.758215 18.498940 7.018824
v -22.635179 18.498940 7.141859
v -22.480146 18.498940 7.220852
v -22.308290 18.498940 7.248072
v -22.136434 18.498940 7.220852
v -21.981401 18.498940 7.141859
v -21.858365 18.498940 7.018824
v -21.779372 18.498940 6.863790
v -21.752153 18.498940 6.691934
v -21.779372 18.498940 6.520078
v -21.858365 18.498940 6.365045
v -21.308290 18.689938 6.691934
v -21.357234 18.689938 7.000951
v -21.499273 18.689938 7.279720
v -21.720505 18.689938 7.500951
v -21.999273 18.689938 7.642991
v -22.308290 18.689938 7.691934
v -22.617307 18.689938 7.642991
v -22.896075 18.689938 7.500951
v -23.117307 18.689938 7.279720
v -23.259347 18.689938 7.000951
v -23.308290 18.689938 6.691934
v -23.259347 18.689938 6.382917
v -23.117307 18.689938 6.104149
v -22.896076 18.689938 5.882917
v -22.617307 18.689938 5.740877
v -22.308290 18.689938 5.691934
v -21.999273 18.689938 5.740877
v -21.720505 18.689938 5.882917
v -21.499273 18.689938 6.104149
v -21.357233 18.689938 6.382917
vt 0.673263 0.817991
vt 0.661238 0.857359
vt 0.655897 0.823634
vt 0.655897 0.891084
vt 0.620561 0.857359
vt 0.617211 0.836204
vt 0.640395 0.793210
vt 0.640395 0.921508
vt 0.617211 0.878514
vt 0.552102 0.857359
vt 0.607487 0.817119
vt 0.616251 0.769066
vt 0.616250 0.945652
vt 0.607487 0.897598
vt 0.592341 0.801974
vt 0.585827 0.753564
vt 0.585827 0.961154
vt 0.592341 0.912744
vt 0.573257 0.792250
vt 0.552102 0.748222
vt 0.552102 0.966495
vt 0.573257 0.922468
vt 0.552102 0.788899
vt 0.518377 0.753564
vt 0.518377 0.961154
vt 0.552102 0.925818
vt 0.530946 0.792250
vt 0.487953 0.769066
vt 0.487953 0.945652
vt 0.530946 0.922468
vt 0.511862 0.801974
vt 0.463809 0.793210
vt 0.463809 0.921508
vt 0.511862 0.912744
vt 0.496717 0.817119
vt 0.448307 0.823634
vt 0.448307 0.891084
vt 0.496717 0.897598
vt 0.486993 0.836204
vt 0.442965 0.857359
vt 0.486993 0.878514
vt 0.483642 0.857359
vt 0.655168 0.782477
vt 0.626983 0.754293
vt 0.591469 0.736198
vt 0.552102 0.729962
vt 0.512734 0.736198
vt 0.477220 0.754293
vt 0.449036 0.782477
vt 0.430941 0.817991
vt 0.424705 0.857359
vt 0.430941 0.896726
vt 0.449036 0.932240
vt 0.477220 0.960425
vt 0.512734 0.978520
vt 0.552102 0.984755
vt 0.591469 0.978520
vt 0.626983 0.960425
vt 0.655168 0.932240
vt 0.673263 0.896726
vt 0.679498 0.857359
vt 0.709082 0.179675
vt 0.709082 0.289490
vt 0.683459 0.289490
vt 0.683459 0.179675
vt 0.735406 0.192369
vt 0.735406 0.289490
vt 0.709082 0.399304
vt 0.683459 0.399304
vt 0.709082 0.080610
vt 0.683459 0.080610
vt 0.735406 0.386611
vt 0.709082 0.498369
vt 0.683459 0.498369
vt 0.709082 0.001992
vt 0.683459 0.001992
vt 0.709082 0.576988
vt 0.683459 0.576988
vt 0.766419 0.399304
vt 0.766419 0.498369
vt 0.740795 0.498369
vt 0.740795 0.399304
vt 0.766419 0.576987
vt 0.740795 0.576987
vt 0.766419 0.289490
vt 0.740795 0.289490
vt 0.792743 0.289490
vt 0.792743 0.386611
vt 0.766419 0.179675
vt 0.740795 0.179675
vt 0.792743 0.192369
vt 0.766419 0.080610
vt 0.740795 0.080610
vt 0.766419 0.001992
vt 0.740795 0.001992
vt 0.653893 0.357359
vt 0.626745 0.357359
vt 0.612691 0.268627
vt 0.638510 0.260238
vt 0.638510 0.454480
vt 0.612691 0.446091
vt 0.570301 0.357359
vt 0.559010 0.286069
vt 0.571906 0.188580
vt 0.593868 0.172623
vt 0.593868 0.542094
vt 0.571905 0.526137
vt 0.559010 0.428649
vt 0.526242 0.221757
vt 0.508380 0.125055
vt 0.524337 0.103092
vt 0.627100 0.148479
vt 0.677576 0.247544
vt 0.677576 0.467173
vt 0.627099 0.566238
vt 0.524337 0.611625
vt 0.508380 0.589662
vt 0.526241 0.492961
vt 0.475203 0.170719
vt 0.428334 0.084270
vt 0.436723 0.058451
vt 0.548481 0.069861
vt 0.548481 0.644857
vt 0.436723 0.656267
vt 0.428334 0.630448
vt 0.475203 0.543999
vt 0.410892 0.137951
vt 0.339602 0.070216
vt 0.339602 0.043068
vt 0.449416 0.019385
vt 0.449416 0.695333
vt 0.339602 0.671650
vt 0.339602 0.644502
vt 0.410892 0.576767
vt 0.339602 0.126659
vt 0.250870 0.084270
vt 0.242481 0.058451
vt 0.339602 0.001992
vt 0.339602 0.712726
vt 0.242481 0.656267
vt 0.250870 0.630448
vt 0.339602 0.588058
vt 0.268312 0.137951
vt 0.170823 0.125055
vt 0.154866 0.103092
vt 0.229787 0.019385
vt 0.229787 0.695333
vt 0.154866 0.611625
vt 0.170823 0.589662
vt 0.268312 0.576767
vt 0.204000 0.170719
vt 0.107298 0.188580
vt 0.085335 0.172623
vt 0.130722 0.069861
vt 0.130722 0.644857
vt 0.085335 0.542094
vt 0.107298 0.526137
vt 0.204000 0.543999
vt 0.152962 0.221757
vt 0.066513 0.268627
vt 0.040693 0.260238
vt 0.052104 0.148480
vt 0.052104 0.566238
vt 0.040693 0.454480
vt 0.066513 0.446091
vt 0.152962 0.492961
vt 0.120194 0.286069
vt 0.052459 0.357359
vt 0.025311 0.357359
vt 0.001628 0.247545
vt 0.001628 0.467173
vt 0.120194 0.428649
vt 0.108902 0.357359
vt 0.789952 0.679314
vt 0.789952 0.580249
vt 0.815575 0.580249
vt 0.815575 0.679314
vt 0.789952 0.789129
vt 0.815575 0.789129
vt 0.789952 0.898943
vt 0.815575 0.898943
vt 0.789952 0.998008
vt 0.815575 0.998008
vt 0.784938 0.898943
vt 0.784938 0.998008
vt 0.759315 0.998008
vt 0.759315 0.898943
vt 0.784938 0.789129
vt 0.759315 0.789129
vt 0.784938 0.679314
vt 0.759315 0.679314
vt 0.784938 0.580249
vt 0.759315 0.580249
vn 0.424625 -0.905369 0.000000
vn -0.152815 -0.988255 -0.000000
vn -0.145335 -0.988255 0.047222
vn 0.403843 -0.905369 -0.131216
vn 0.403842 -0.905369 0.131216
vn -0.145335 -0.988255 -0.047222
vn 0.343529 -0.905369 0.249588
vn -0.123629 -0.988255 -0.089822
vn 0.249588 -0.905369 0.343529
vn -0.089822 -0.988255 -0.123629
vn 0.131216 -0.905369 0.403843
vn -0.047222 -0.988255 -0.145335
vn 0.000000 -0.905369 0.424625
vn 0.000000 -0.988255 -0.152814
vn -0.131216 -0.905369 0.403842
vn 0.047222 -0.988255 -0.145335
vn -0.249588 -0.905369 0.343529
vn 0.089822 -0.988255 -0.123630
vn -0.343529 -0.905370 0.249588
vn 0.123630 -0.988255 -0.089822
vn -0.403842 -0.905369 0.131216
vn 0.145335 -0.988255 -0.047222
vn -0.424625 -0.905369 0.000000
vn 0.152814 -0.988255 0.000000
vn -0.403842 -0.905369 -0.131216
vn 0.145335 -0.988255 0.047222
vn -0.343529 -0.905370 -0.249588
vn 0.123630 -0.988255 0.089822
vn -0.249588 -0.905370 -0.343528
vn 0.089822 -0.988255 0.123630
vn -0.131216 -0.905370 -0.403842
vn 0.047222 -0.988255 0.145335
vn 0.000000 -0.905370 -0.424625
vn 0.000000 -0.988255 0.152814
vn 0.131216 -0.905370 -0.403842
vn -0.047222 -0.988255 0.145335
vn 0.249588 -0.905369 -0.343529
vn -0.089822 -0.988255 0.123630
vn 0.343529 -0.905369 -0.249588
vn -0.123630 -0.988255 0.089822
vn 0.539569 -0.841941 0.000000
vn 0.513161 -0.841941 0.166736
vn 0.436521 -0.841941 0.317151
vn 0.317151 -0.841941 0.436520
vn 0.166736 -0.841941 0.513161
vn -0.000000 -0.841942 0.539569
vn -0.166736 -0.841942 0.513160
vn -0.317151 -0.841942 0.436520
vn -0.436520 -0.841942 0.317150
vn -0.513160 -0.841942 0.166736
vn -0.539569 -0.841942 0.000000
vn -0.513160 -0.841942 -0.166736
vn -0.436520 -0.841942 -0.317150
vn -0.317151 -0.841942 -0.436520
vn -0.166736 -0.841942 -0.513160
vn -0.000000 -0.841942 -0.539568
vn 0.166736 -0.841942 -0.513160
vn 0.317150 -0.841942 -0.436520
vn 0.436520 -0.841942 -0.317150
vn 0.513161 -0.841942 -0.166735
vn 0.694483 -0.719510 0.000001
vn 0.515544 -0.856863 0.000001
vn 0.490312 -0.856863 -0.159311
vn 0.660492 -0.719510 -0.214606
vn 0.660492 -0.719509 0.214607
vn 0.490312 -0.856863 0.159312
vn 0.561848 -0.719510 0.408207
vn 0.417084 -0.856863 0.303029
vn 0.408207 -0.719510 0.561848
vn 0.303029 -0.856863 0.417084
vn 0.214607 -0.719510 0.660492
vn 0.159312 -0.856863 0.490312
vn 0.000000 -0.719510 0.694483
vn 0.000000 -0.856863 0.515544
vn -0.214607 -0.719510 0.660492
vn -0.159312 -0.856863 0.490312
vn -0.408207 -0.719510 0.561848
vn -0.303029 -0.856863 0.417084
vn -0.561848 -0.719510 0.408207
vn -0.417084 -0.856863 0.303029
vn -0.660492 -0.719509 0.214607
vn -0.490312 -0.856863 0.159312
vn -0.694483 -0.719509 0.000000
vn -0.515544 -0.856863 0.000000
vn -0.660492 -0.719510 -0.214607
vn -0.490312 -0.856863 -0.159312
vn -0.561848 -0.719510 -0.408207
vn -0.417084 -0.856863 -0.303029
vn -0.408207 -0.719510 -0.561848
vn -0.303029 -0.856863 -0.417084
vn -0.214607 -0.719509 -0.660492
vn -0.159312 -0.856863 -0.490312
vn 0.000000 -0.719510 -0.694483
vn 0.000000 -0.856863 -0.515544
vn 0.214607 -0.719510 -0.660492
vn 0.159312 -0.856863 -0.490311
vn 0.408206 -0.719510 -0.561848
vn 0.303029 -0.856863 -0.417084
vn 0.417084 -0.856863 -0.303029
vn 0.561848 -0.719510 -0.408207
vn -0.307165 -0.946408 -0.099804
vn -0.322973 -0.946408 -0.000000
vn -0.261291 -0.946408 -0.189839
vn -0.189839 -0.946408 -0.261291
vn -0.099804 -0.946408 -0.307166
vn 0.000000 -0.946408 -0.322973
vn 0.099804 -0.946408 -0.307165
vn 0.189839 -0.946408 -0.261291
vn 0.261290 -0.946408 -0.189839
vn 0.307165 -0.946408 -0.099804
vn 0.322973 -0.946408 0.000000
vn 0.307165 -0.946408 0.099804
vn 0.261291 -0.946408 0.189839
vn 0.189839 -0.946408 0.261290
vn 0.099804 -0.946408 0.307165
vn 0.000000 -0.946408 0.322973
vn -0.099804 -0.946408 0.307165
vn -0.189839 -0.946408 0.261290
vn -0.261290 -0.946408 0.189839
vn -0.307165 -0.946408 0.099804
vn 0.219118 -0.975698 0.000000
vn 0.208394 -0.975698 0.067711
vn 0.000000 -1.000000 0.000000
vn 0.177270 -0.975698 0.128795
vn 0.128794 -0.975698 0.177270
vn 0.067711 -0.975698 0.208394
vn -0.000000 -0.975698 0.219118
vn -0.067711 -0.975698 0.208394
vn -0.128794 -0.975698 0.177270
vn -0.177270 -0.975698 0.128795
vn -0.208394 -0.975698 0.067711
vn -0.219118 -0.975698 0.000000
vn -0.208394 -0.975698 -0.067711
vn -0.177270 -0.975698 -0.128794
vn -0.128795 -0.975698 -0.177270
vn -0.067711 -0.975698 -0.208394
vn 0.000000 -0.975698 -0.219118
vn 0.067711 -0.975698 -0.208394
vn 0.128794 -0.975698 -0.177270
vn 0.177270 -0.975698 -0.128794
vn 0.208394 -0.975698 -0.067711
vn 0.951057 0.000000 0.309017
vn 1.000000 0.000000 0.000001
vn 1.000000 0.000000 0.000001
vn 0.951057 0.000000 0.309017
vn 0.809017 0.000000 0.587785
vn 0.809017 0.000000 0.587785
vn 0.587785 0.000000 0.809017
vn 0.587785 0.000000 0.809017
vn 0.309017 0.000000 0.951057
vn 0.309017 0.000000 0.951057
vn 0.000000 0.000000 1.000000
vn 0.000000 0.000000 1.000000
vn -0.309017 0.000000 0.951057
vn -0.309017 0.000000 0.951057
vn -0.587785 0.000000 0.809017
vn -0.587785 0.000000 0.809017
vn -0.809017 0.000000 0.587785
vn -0.809017 0.000000 0.587785
vn -0.951057 0.000000 0.309017
vn -0.951057 0.000000 0.309017
vn -1.000000 -0.000000 0.000000
vn -1.000000 -0.000000 0.000000
vn -0.951057 -0.000000 -0.309017
vn -0.951057 -0.000000 -0.309017
vn -0.809017 -0.000000 -0.587785
vn -0.809017 -0.000000 -0.587785
vn -0.587785 -0.000000 -0.809017
vn -0.587785 -0.000000 -0.809017
vn -0.309017 -0.000000 -0.951057
vn -0.309017 -0.000000 -0.951057
vn -0.000000 -0.000000 -1.000000
vn -0.000000 -0.000000 -1.000000
vn 0.309017 -0.000000 -0.951057
vn 0.309017 -0.000000 -0.951057
vn 0.587785 -0.000000 -0.809017
vn 0.587785 -0.000000 -0.809017
vn 0.809017 -0.000000 -0.587785
vn 0.809017 -0.000000 -0.587785
vn 0.951057 -0.000000 -0.309016
vn 0.951057 -0.000000 -0.309016
s 1
g pPipe1
usemtl initialShadingGroup
f 21/96/1 22/97/2 60/98/3 59/99/4
f 22/97/2 21/96/1 23/100/5 24/101/6
f 24/101/6 23/100/5 25/106/7 26/107/8
f 26/107/8 25/106/7 27/116/9 28/117/10
f 28/117/10 27/116/9 29/124/11 30/125/12
f 30/125/12 29/124/11 31/132/13 32/133/14
f 32/133/14 31/132/13 33/140/15 34/141/16
f 34/141/16 33/140/15 35/148/17 36/149/18
f 36/149/18 35/148/17 37/156/19 38/157/20
f 38/157/20 37/156/19 39/164/21 40/165/22
f 40/165/22 39/164/21 41/169/23 42/168/24
f 42/168/24 41/169/23 43/161/25 44/160/26
f 44/160/26 43/161/25 45/153/27 46/152/28
f 46/152/28 45/153/27 47/145/29 48/144/30
f 48/144/30 47/145/29 49/137/31 50/136/32
f 50/136/32 49/137/31 51/129/33 52/128/34
f 52/128/34 51/129/33 53/121/35 54/120/36
f 54/120/36 53/121/35 55/111/37 56/110/38
f 56/110/38 55/111/37 57/105/39 58/104/40
f 58/104/40 57/105/39 59/99/4 60/98/3
f 23/66/5 21/67/1 1/63/41 2/62/42
f 25/106/7 23/100/5 2/114/42 3/115/43
f 27/116/9 25/106/7 3/115/43 4/123/44
f 29/124/11 27/116/9 4/123/44 5/131/45
f 31/132/13 29/124/11 5/131/45 6/139/46
f 33/140/15 31/132/13 6/139/46 7/147/47
f 35/148/17 33/140/15 7/147/47 8/155/48
f 37/156/19 35/148/17 8/155/48 9/163/49
f 39/164/21 37/156/19 9/163/49 10/171/50
f 41/87/23 39/88/21 10/79/50 11/85/51
f 43/91/25 41/87/23 11/85/51 12/89/52
f 45/153/27 43/161/25 12/170/52 13/162/53
f 47/145/29 45/153/27 13/162/53 14/154/54
f 49/137/31 47/145/29 14/154/54 15/146/55
f 51/129/33 49/137/31 15/146/55 16/138/56
f 53/121/35 51/129/33 16/138/56 17/130/57
f 55/111/37 53/121/35 17/130/57 18/122/58
f 57/105/39 55/111/37 18/122/58 19/112/59
f 59/99/4 57/105/39 19/112/59 20/113/60
f 21/67/1 59/72/4 20/68/60 1/63/41
s 2
f 62/61/61 119/2/62 120/3/63 100/1/64
f 119/2/62 62/61/61 64/60/65 118/4/66
f 118/4/66 64/60/65 66/59/67 117/8/68
f 117/8/68 66/59/67 68/58/69 116/13/70
f 116/13/70 68/58/69 70/57/71 115/17/72
f 115/17/72 70/57/71 72/56/73 114/21/74
f 114/21/74 72/56/73 74/55/75 113/25/76
f 113/25/76 74/55/75 76/54/77 112/29/78
f 112/29/78 76/54/77 78/53/79 111/33/80
f 111/33/80 78/53/79 80/52/81 110/37/82
f 110/37/82 80/52/81 82/51/83 109/40/84
f 109/40/84 82/51/83 84/50/85 108/36/86
f 108/36/86 84/50/85 86/49/87 107/32/88
f 107/32/88 86/49/87 88/48/89 106/28/90
f 106/28/90 88/48/89 90/47/91 105/24/92
f 105/24/92 90/47/91 92/46/93 104/20/94
f 104/20/94 92/46/93 94/45/95 103/16/96
f 103/16/96 94/45/95 96/44/97 102/12/98
f 121/7/99 102/12/98 96/44/97 98/43/100
f 121/7/99 98/43/100 100/1/64 120/3/63
s 1
f 22/97/2 24/101/6 64/108/101 62/102/102
f 24/101/6 26/107/8 66/118/103 64/108/101
f 26/107/8 28/117/10 68/126/104 66/118/103
f 28/117/10 30/125/12 70/134/105 68/126/104
f 30/125/12 32/133/14 72/142/106 70/134/105
f 32/133/14 34/141/16 74/150/107 72/142/106
f 34/141/16 36/149/18 76/158/108 74/150/107
f 36/149/18 38/157/20 78/166/109 76/158/108
f 38/157/20 40/165/22 80/172/110 78/166/109
f 40/165/22 42/168/24 82/173/111 80/172/110
f 42/168/24 44/160/26 84/167/112 82/173/111
f 44/160/26 46/152/28 86/159/113 84/167/112
f 46/152/28 48/144/30 88/151/114 86/159/113
f 48/144/30 50/136/32 90/143/115 88/151/114
f 50/136/32 52/128/34 92/135/116 90/143/115
f 52/128/34 54/120/36 94/127/117 92/135/116
f 54/120/36 56/110/38 96/119/118 94/127/117
f 56/110/38 58/104/40 98/109/119 96/119/118
f 58/104/40 60/98/3 100/103/120 98/109/119
f 60/98/3 22/97/2 62/102/102 100/103/120
s 2
f 63/5/121 65/9/122 61/10/123
f 65/9/122 67/14/124 61/10/123
f 67/14/124 69/18/125 61/10/123
f 69/18/125 71/22/126 61/10/123
f 71/22/126 73/26/127 61/10/123
f 73/26/127 75/30/128 61/10/123
f 75/30/128 77/34/129 61/10/123
f 77/34/129 79/38/130 61/10/123
f 79/38/130 81/41/131 61/10/123
f 81/41/131 83/42/132 61/10/123
f 83/42/132 85/39/133 61/10/123
f 85/39/133 87/35/134 61/10/123
f 87/35/134 89/31/135 61/10/123
f 89/31/135 91/27/136 61/10/123
f 91/27/136 93/23/137 61/10/123
f 93/23/137 95/19/138 61/10/123
f 95/19/138 97/15/139 61/10/123
f 97/15/139 99/11/140 61/10/123
f 99/11/140 101/6/141 61/10/123
f 101/6/141 63/5/121 61/10/123
f 95/19/138 103/16/96 102/12/98 97/15/139
f 93/23/137 104/20/94 103/16/96 95/19/138
f 91/27/136 105/24/92 104/20/94 93/23/137
f 89/31/135 106/28/90 105/24/92 91/27/136
f 87/35/134 107/32/88 106/28/90 89/31/135
f 85/39/133 108/36/86 107/32/88 87/35/134
f 83/42/132 109/40/84 108/36/86 85/39/133
f 81/41/131 110/37/82 109/40/84 83/42/132
f 79/38/130 111/33/80 110/37/82 81/41/131
f 77/34/129 112/29/78 111/33/80 79/38/130
f 75/30/128 113/25/76 112/29/78 77/34/129
f 73/26/127 114/21/74 113/25/76 75/30/128
f 71/22/126 115/17/72 114/21/74 73/26/127
f 69/18/125 116/13/70 115/17/72 71/22/126
f 67/14/124 117/8/68 116/13/70 69/18/125
f 65/9/122 118/4/66 117/8/68 67/14/124
f 63/5/121 119/2/62 118/4/66 65/9/122
f 120/3/63 119/2/62 63/5/121 101/6/141
f 99/11/140 121/7/99 120/3/63 101/6/141
f 97/15/139 102/12/98 121/7/99 99/11/140
s 3
f 2/62/142 1/63/143 122/64/144 123/65/145
f 3/70/146 2/62/142 123/65/145 124/71/147
f 4/75/148 3/70/146 124/71/147 125/76/149
f 5/174/150 4/175/148 125/176/149 126/177/151
f 6/178/152 5/174/150 126/177/151 127/179/153
f 7/180/154 6/178/152 127/179/153 128/181/155
f 8/182/156 7/180/154 128/181/155 129/183/157
f 9/80/158 8/83/156 129/84/157 130/81/159
f 10/79/160 9/80/158 130/81/159 131/82/161
f 11/85/162 10/79/160 131/82/161 132/86/163
f 12/89/164 11/85/162 132/86/163 133/90/165
f 13/92/166 12/89/164 133/90/165 134/93/167
f 14/94/168 13/92/166 134/93/167 135/95/169
f 15/184/170 14/185/168 135/186/169 136/187/171
f 16/188/172 15/184/170 136/187/171 137/189/173
f 17/190/174 16/188/172 137/189/173 138/191/175
f 18/192/176 17/190/174 138/191/175 139/193/177
f 19/73/178 18/77/176 139/78/177 140/74/179
f 20/68/180 19/73/178 140/74/179 141/69/181
f 1/63/143 20/68/180 141/69/181 122/64/144
