# This file uses centimeters as units for non-parametric coordinates.

mtllib celling.mtl
g default
v 16.424211 18.798621 -38.983267
v 16.422132 18.798621 15.514483
v -14.879893 18.798621 -38.965379
v -46.688781 18.798621 15.475942
v -46.688781 18.798621 -21.613428
v -49.380398 18.798621 -31.865404
v -49.380398 18.798621 -21.613428
v -73.042813 18.798621 -31.865389
v -73.042813 18.798621 -56.166907
v -14.858654 18.798621 -56.166907
v -14.879893 18.798621 15.495037
v -49.219723 18.798621 -56.166907
v -46.688781 20.083361 -21.613428
v -46.688781 20.083361 15.475942
v -14.879893 20.083361 15.495037
v -14.879893 20.083361 -38.965379
v -49.380398 20.083361 -31.865404
v -49.219723 20.083361 -56.166907
v -73.042813 20.083361 -56.166907
v -73.042813 20.083361 -31.865389
v 16.422132 20.083361 15.514483
v 16.424211 20.083361 -38.983267
v -49.380398 20.083361 -21.613428
v -14.858654 20.083361 -56.166907
vt 0.936346 0.856274
vt 0.936346 0.607073
vt 0.944978 0.607073
vt 0.944978 0.856274
vt 0.906919 0.770353
vt 0.906919 0.607073
vt 0.915551 0.607073
vt 0.915551 0.770353
vt 0.951060 0.973240
vt 0.951060 0.607073
vt 0.959691 0.607073
vt 0.959691 0.973240
vt 0.877494 0.722649
vt 0.877494 0.607073
vt 0.886125 0.607073
vt 0.886125 0.722649
vt 0.862781 0.675956
vt 0.862781 0.607073
vt 0.871414 0.607073
vt 0.871414 0.675956
vt 0.251436 0.426044
vt 0.002234 0.426044
vt 0.002105 0.212321
vt 0.368021 0.212321
vt 0.001974 0.002005
vt 0.368142 0.001992
vt 0.483597 0.212179
vt 0.251436 0.444129
vt 0.320318 0.444129
vt 0.483597 0.443048
vt 0.483597 0.603114
vt 0.320318 0.603114
vt 0.723022 0.426045
vt 0.606436 0.212323
vt 0.972352 0.212323
vt 0.972223 0.426045
vt 0.490860 0.212181
vt 0.723022 0.444130
vt 0.972483 0.002008
vt 0.606316 0.001993
vt 0.654139 0.444130
vt 0.490860 0.443051
vt 0.654140 0.603116
vt 0.490860 0.603116
vt 0.980485 0.426032
vt 0.980485 0.212309
vt 0.989117 0.212309
vt 0.989117 0.426032
vt 0.980485 0.001993
vt 0.989117 0.001993
vt 0.974403 0.837942
vt 0.974403 0.998008
vt 0.965770 0.998008
vt 0.965770 0.837942
vt 0.974403 0.607075
vt 0.965770 0.607075
vt 0.892205 0.766059
vt 0.892205 0.607073
vt 0.900838 0.607073
vt 0.900838 0.766059
vt 0.930265 0.607075
vt 0.930265 0.817406
vt 0.921632 0.817406
vt 0.921632 0.607075
vt 0.848068 0.625157
vt 0.848068 0.607073
vt 0.856701 0.607073
vt 0.856701 0.625157
vn 0.000000 1.000000 0.000000
vn 0.000000 1.000000 0.000000
vn 0.000000 1.000000 0.000000
vn 0.000000 1.000000 0.000000
vn 0.000000 1.000000 -0.000000
vn 0.000000 1.000000 -0.000000
vn 0.000000 1.000000 0.000000
vn 0.000000 1.000000 0.000000
vn 0.000000 1.000000 0.000000
vn 0.000000 1.000000 0.000000
vn 0.000000 1.000000 0.000000
vn 0.000000 1.000000 0.000000
vn 0.000000 -1.000000 0.000000
vn 0.000000 -1.000000 0.000000
vn 0.000000 -1.000000 0.000000
vn 0.000000 -1.000000 0.000000
vn 0.000000 -1.000000 0.000000
vn 0.000000 -1.000000 0.000000
vn 0.000000 -1.000000 0.000000
vn 0.000000 -1.000000 0.000000
vn 0.000000 -1.000000 0.000000
vn 0.000000 -1.000000 0.000000
vn 0.000000 -1.000000 0.000000
vn 0.000000 -1.000000 0.000000
vn -1.000000 0.000000 0.000000
vn -1.000000 0.000000 0.000000
vn -1.000000 0.000000 0.000000
vn -1.000000 0.000000 0.000000
vn -0.000600 0.000000 1.000000
vn -0.000611 0.000000 1.000000
vn -0.000611 0.000000 1.000000
vn -0.000600 0.000000 1.000000
vn 0.000000 0.000000 -1.000000
vn 0.000000 0.000000 -1.000000
vn 0.000000 0.000000 -1.000000
vn 0.000000 0.000000 -1.000000
vn -1.000000 0.000000 0.000000
vn -1.000000 0.000000 0.000000
vn -1.000000 0.000000 0.000000
vn -1.000000 0.000000 0.000000
vn 0.000001 0.000000 1.000000
vn 0.000001 0.000000 1.000000
vn 0.000001 0.000000 1.000000
vn 0.000001 0.000000 1.000000
vn 1.000000 0.000000 0.000038
vn 1.000000 0.000000 0.000038
vn 1.000000 0.000000 0.000038
vn 1.000000 0.000000 0.000038
vn -0.000571 0.000000 -1.000000
vn -0.000571 0.000000 -1.000000
vn -0.000571 0.000000 -1.000000
vn -0.000571 0.000000 -1.000000
vn -0.000621 0.000000 1.000000
vn -0.000621 0.000000 1.000000
vn 0.000000 0.000000 1.000000
vn 0.000000 0.000000 1.000000
vn 0.000000 0.000000 1.000000
vn 0.000000 0.000000 1.000000
vn 0.999999 0.000000 0.001235
vn 0.999999 0.000000 0.001235
vn 0.999999 0.000000 0.001235
vn 0.999999 0.000000 0.001235
vn -1.000000 0.000000 0.000000
vn -1.000000 0.000000 0.000000
vn -1.000000 0.000000 0.000000
vn -1.000000 0.000000 0.000000
vn 0.000000 0.000000 -1.000000
vn 0.000000 0.000000 -1.000000
s 1
g pPlane238
usemtl initialShadingGroup
f 13/21/1 14/22/2 15/23/3 16/24/4
f 17/29/5 18/30/6 19/31/7 20/32/8
f 21/25/9 22/26/10 16/24/4 15/23/3
f 24/27/11 23/28/12 13/21/1 16/24/4
f 17/29/5 23/28/12 24/27/11 18/30/6
s 3
f 5/33/13 3/34/14 11/35/15 4/36/16
f 6/41/17 8/43/18 9/44/19 12/42/20
f 2/39/21 11/35/15 3/34/14 1/40/22
f 10/37/23 3/34/14 5/33/13 7/38/24
f 6/41/17 12/42/20 10/37/23 7/38/24
s off
f 5/1/25 4/2/26 14/3/27 13/4/28
s 5
f 4/45/29 11/46/30 15/47/31 14/48/32
s 6
f 12/51/33 9/52/34 19/53/35 18/54/36
s off
f 9/5/37 8/6/38 20/7/39 19/8/40
f 8/57/41 6/58/42 17/59/43 20/60/44
f 2/9/45 1/10/46 22/11/47 21/12/48
f 1/61/49 3/62/50 16/63/51 22/64/52
s 5
f 11/46/30 2/49/53 21/50/54 15/47/31
s off
f 7/65/55 5/66/56 13/67/57 23/68/58
f 3/13/59 10/14/60 24/15/61 16/16/62
f 6/17/63 7/18/64 23/19/65 17/20/66
s 6
f 10/55/67 12/51/33 18/54/36 24/56/68
