# This file uses centimeters as units for non-parametric coordinates.

mtllib Mamba.mtl
g default
v -12.436618 5.804685 9.247289
v -12.436618 7.095741 9.247289
v -12.436618 5.804685 9.422762
v -12.436618 7.095741 9.422762
v -11.545848 5.804685 9.385844
v -11.550999 5.804685 9.411756
v -11.573773 5.804685 9.417549
v -11.573773 7.095741 9.417549
v -11.550999 7.095741 9.411756
v -11.545848 7.095741 9.385844
v -11.545848 7.095741 9.284207
v -11.550999 7.095741 9.258294
v -11.573773 7.095741 9.252502
v -11.573773 5.804685 9.252502
v -11.550999 5.804685 9.258294
v -11.545848 5.804685 9.284207
v -11.547680 7.095741 9.263348
v -11.545238 7.095741 9.335025
v -11.545238 5.804685 9.335025
v -11.614959 5.804685 9.419552
v -11.614959 7.095741 9.419552
v -11.614959 7.095741 9.250499
v -11.614959 5.804685 9.250499
v -11.556075 7.095741 9.415161
v -11.547680 7.095741 9.406703
v -11.556075 5.804685 9.254890
v -11.547680 5.804685 9.263348
v -11.556075 5.804685 9.415161
v -11.547680 5.804685 9.406703
v -11.556075 7.095741 9.254890
v -12.438168 5.801088 9.244474
v -12.438168 7.099338 9.244474
v -12.438168 5.801088 9.425577
v -12.438168 7.099338 9.425577
v -11.543820 5.801088 9.387474
v -11.548991 5.801088 9.414219
v -11.571855 5.801088 9.420197
v -11.571855 7.099338 9.420197
v -11.548991 7.099338 9.414219
v -11.543820 7.099338 9.387474
v -11.543820 7.099338 9.282577
v -11.548991 7.099338 9.255833
v -11.571855 7.099338 9.249854
v -11.571855 5.801088 9.249854
v -11.548991 5.801088 9.255833
v -11.543820 5.801088 9.282577
v -11.545659 7.099338 9.261049
v -11.543208 7.099338 9.335025
v -11.543208 5.801088 9.335025
v -11.613200 5.801088 9.422264
v -11.613200 7.099338 9.422264
v -11.613200 7.099338 9.247787
v -11.613200 5.801088 9.247787
v -11.554087 7.099338 9.417732
v -11.545659 7.099338 9.409002
v -11.554087 5.801088 9.252318
v -11.545659 5.801088 9.261049
v -11.554087 5.801088 9.417732
v -11.545659 5.801088 9.409002
v -11.554087 7.099338 9.252318
v -11.554355 5.816198 9.414579
v -11.554355 7.084227 9.414579
v -11.554355 7.084227 9.255472
v -11.554355 5.816198 9.255472
v -12.418071 5.816198 9.250054
v -12.418071 7.084227 9.250054
v -12.418072 5.816198 9.419998
v -12.418072 7.084227 9.419998
vt 0.551133 0.375055
vt 0.536489 0.375055
vt 0.536489 0.003028
vt 0.551133 0.003028
vt 0.551133 0.376092
vt 0.536020 0.376092
vt 0.530479 0.375055
vt 0.530479 0.003028
vt 0.536020 0.001992
vt 0.551133 0.001992
vt 0.565776 0.003028
vt 0.565776 0.375055
vt 0.566246 0.376092
vt 0.529816 0.376092
vt 0.529022 0.375055
vt 0.529022 0.003028
vt 0.529816 0.001992
vt 0.566246 0.001992
vt 0.571787 0.003028
vt 0.571787 0.375055
vt 0.572450 0.376092
vt 0.528313 0.376092
vt 0.528041 0.375055
vt 0.528041 0.003028
vt 0.528313 0.001992
vt 0.572450 0.001992
vt 0.573243 0.003028
vt 0.573243 0.375055
vt 0.573953 0.376092
vt 0.573953 0.001992
vt 0.574225 0.003028
vt 0.574225 0.375055
vt 0.649277 0.379911
vt 0.655481 0.379911
vt 0.655481 0.754011
vt 0.649277 0.754011
vt 0.670594 0.754011
vt 0.670594 0.379911
vt 0.647774 0.379911
vt 0.647774 0.754011
vt 0.685708 0.379911
vt 0.685708 0.754011
vt 0.646762 0.379911
vt 0.646762 0.754011
vt 0.691911 0.754011
vt 0.691911 0.379911
vt 0.693414 0.754011
vt 0.693414 0.379911
vt 0.694427 0.754011
vt 0.694427 0.379911
vt 0.640079 0.379911
vt 0.640891 0.380948
vt 0.640891 0.752975
vt 0.640079 0.754011
vt 0.634208 0.379911
vt 0.634208 0.754011
vt 0.633397 0.752975
vt 0.633397 0.380948
vt 0.118012 0.745302
vt 0.072164 0.745302
vt 0.072164 0.379911
vt 0.118012 0.379911
vt 0.017323 0.379911
vt 0.066293 0.379911
vt 0.066293 0.745302
vt 0.017323 0.745302
vt 0.003467 0.749122
vt 0.049315 0.749122
vt 0.050876 0.998008
vt 0.001906 0.998008
vt 0.105454 0.749122
vt 0.107015 0.998008
vt 0.058045 0.998008
vt 0.059606 0.749122
vt 0.002353 0.003028
vt 0.239120 0.003028
vt 0.239120 0.375055
vt 0.002353 0.375055
vt 0.001906 0.001992
vt 0.239626 0.001992
vt 0.250988 0.003028
vt 0.250988 0.375055
vt 0.001906 0.376092
vt 0.239626 0.376092
vt 0.251541 0.001992
vt 0.256087 0.003028
vt 0.256087 0.375055
vt 0.251541 0.376092
vt 0.256660 0.001992
vt 0.256660 0.376092
vt 0.257550 0.003028
vt 0.258129 0.001992
vt 0.257550 0.375055
vt 0.258129 0.376092
vt 0.265514 0.003029
vt 0.502280 0.003029
vt 0.502280 0.375055
vt 0.265514 0.375055
vt 0.265067 0.001992
vt 0.502787 0.001992
vt 0.514149 0.003029
vt 0.514149 0.375055
vt 0.265067 0.376092
vt 0.502787 0.376092
vt 0.514701 0.001992
vt 0.519248 0.003029
vt 0.519248 0.375055
vt 0.514701 0.376092
vt 0.519821 0.001992
vt 0.519821 0.376092
vt 0.520711 0.003029
vt 0.521290 0.001992
vt 0.520711 0.375055
vt 0.521290 0.376092
vt 0.580263 0.376092
vt 0.580263 0.001992
vt 0.817983 0.001992
vt 0.817983 0.376092
vt 0.829897 0.001992
vt 0.829897 0.376092
vt 0.835017 0.001992
vt 0.835017 0.376092
vt 0.700298 0.754011
vt 0.700298 0.379911
vt 0.938018 0.379911
vt 0.938018 0.754011
vt 0.949932 0.379911
vt 0.949932 0.754011
vt 0.955052 0.379911
vt 0.955052 0.754011
vt 0.627526 0.379911
vt 0.627526 0.745303
vt 0.378640 0.745303
vt 0.378640 0.379911
vt 0.372769 0.379911
vt 0.372769 0.745303
vt 0.123883 0.745303
vt 0.123883 0.379911
vn -0.003907 0.000000 0.999992
vn -0.006042 0.000000 0.999982
vn -0.006042 0.000000 0.999982
vn -0.003907 0.000000 0.999992
vn -0.003907 0.000000 -0.999992
vn -0.006041 0.000000 -0.999982
vn -0.006041 0.000000 -0.999982
vn -0.003907 0.000000 -0.999992
vn -1.000000 0.000000 0.000000
vn -0.999420 0.000000 0.034040
vn -0.999420 0.000000 0.034040
vn -1.000000 0.000000 0.000000
vn -0.999420 0.000000 -0.034040
vn -0.999420 0.000000 -0.034040
vn -0.074354 0.000000 -0.997232
vn -0.074354 0.000000 -0.997232
vn -0.074364 0.000000 0.997231
vn -0.074364 0.000000 0.997231
vn -0.246525 0.000000 -0.969136
vn -0.246525 0.000000 -0.969136
vn -0.709747 0.000000 -0.704457
vn -0.709747 0.000000 -0.704457
vn -0.980813 0.000000 -0.194953
vn -0.980813 0.000000 -0.194953
vn -0.246475 0.000000 0.969149
vn -0.246475 0.000000 0.969149
vn -0.709747 0.000000 0.704457
vn -0.709747 0.000000 0.704457
vn -0.980814 0.000000 0.194948
vn -0.980814 0.000000 0.194948
vn 0.004015 0.000000 -0.999992
vn 0.004015 0.000000 -0.999992
vn 0.006210 0.000000 -0.999981
vn 0.006210 0.000000 -0.999981
vn 0.004016 0.000000 0.999992
vn 0.004016 0.000000 0.999992
vn 0.006210 0.000000 0.999981
vn 0.006210 0.000000 0.999981
vn 0.076430 0.000000 0.997075
vn 0.076430 0.000000 0.997075
vn 0.252989 0.000000 0.967469
vn 0.252989 0.000000 0.967469
vn 0.719426 0.000000 0.694570
vn 0.719426 0.000000 0.694570
vn 0.981818 0.000000 0.189822
vn 0.981818 0.000000 0.189822
vn 0.999452 0.000000 0.033113
vn 0.999452 0.000000 0.033113
vn 0.076440 0.000000 -0.997074
vn 0.076440 0.000000 -0.997074
vn 0.252990 0.000000 -0.967469
vn 0.252990 0.000000 -0.967469
vn 0.719425 0.000000 -0.694570
vn 0.719425 0.000000 -0.694570
vn 0.981818 0.000000 -0.189822
vn 0.981818 0.000000 -0.189822
vn 0.999452 0.000000 -0.033113
vn 0.999452 0.000000 -0.033113
vn 1.000000 0.000000 0.000000
vn 1.000000 0.000000 0.000000
vn -0.039017 -0.609762 -0.791624
vn -0.039017 -0.609762 -0.791624
vn -0.039017 -0.609762 -0.791624
vn -0.039017 -0.609762 -0.791624
vn -0.106259 -0.621046 -0.776537
vn -0.106259 -0.621046 -0.776537
vn -0.106259 -0.621046 -0.776537
vn -0.106259 -0.621046 -0.776537
vn -0.419973 -0.665178 -0.617382
vn -0.419973 -0.665178 -0.617382
vn -0.419973 -0.665178 -0.617382
vn -0.419973 -0.665178 -0.617382
vn -0.645717 -0.638803 -0.418306
vn -0.645717 -0.638803 -0.418306
vn -0.645717 -0.638803 -0.418306
vn -0.645717 -0.638803 -0.418306
vn -0.851285 -0.519502 -0.073698
vn -0.851285 -0.519502 -0.073698
vn -0.851285 -0.519502 -0.073698
vn -0.851285 -0.519502 -0.073698
vn -0.869976 -0.492986 -0.010306
vn -0.869976 -0.492986 -0.010306
vn -0.869976 -0.492986 -0.010306
vn -0.869976 -0.492986 -0.010306
vn -0.869950 -0.493032 0.010306
vn -0.869950 -0.493032 0.010306
vn -0.869950 -0.493032 0.010306
vn -0.869950 -0.493032 0.010306
vn -0.851307 -0.519466 0.073702
vn -0.851307 -0.519466 0.073702
vn -0.851307 -0.519466 0.073702
vn -0.851307 -0.519466 0.073702
vn -0.645920 -0.638623 0.418268
vn -0.645920 -0.638623 0.418268
vn -0.645920 -0.638623 0.418268
vn -0.645920 -0.638623 0.418268
vn -0.419871 -0.665237 0.617388
vn -0.419871 -0.665237 0.617388
vn -0.419871 -0.665237 0.617388
vn -0.419871 -0.665237 0.617388
vn -0.106217 -0.621101 0.776500
vn -0.106217 -0.621101 0.776500
vn -0.106217 -0.621101 0.776500
vn -0.106217 -0.621101 0.776500
vn -0.039063 -0.609777 0.791610
vn -0.039063 -0.609777 0.791610
vn -0.039063 -0.609777 0.791610
vn -0.039063 -0.609777 0.791610
vn -0.003140 -0.609406 0.792852
vn -0.003140 -0.609406 0.792852
vn -0.003140 -0.609406 0.792852
vn -0.003140 -0.609406 0.792852
vn -0.875953 0.000000 0.482397
vn -0.875953 0.000000 0.482397
vn -0.875953 0.000000 0.482397
vn -0.875953 0.000000 0.482397
vn -0.003140 0.609395 0.792861
vn -0.003140 0.609395 0.792861
vn -0.003140 0.609395 0.792861
vn -0.003140 0.609395 0.792861
vn -0.039065 0.609832 0.791568
vn -0.039065 0.609832 0.791568
vn -0.039065 0.609832 0.791568
vn -0.039065 0.609832 0.791568
vn -0.106226 0.621156 0.776454
vn -0.106226 0.621156 0.776454
vn -0.106226 0.621156 0.776454
vn -0.106226 0.621156 0.776454
vn -0.419865 0.665175 0.617459
vn -0.419865 0.665175 0.617459
vn -0.419865 0.665175 0.617459
vn -0.419865 0.665175 0.617458
vn -0.645875 0.638688 0.418239
vn -0.645875 0.638688 0.418239
vn -0.645875 0.638688 0.418239
vn -0.645875 0.638688 0.418239
vn -0.851276 0.519517 0.073691
vn -0.851276 0.519517 0.073691
vn -0.851276 0.519517 0.073691
vn -0.851276 0.519518 0.073691
vn -0.869979 0.492982 0.010306
vn -0.869979 0.492982 0.010306
vn -0.869979 0.492982 0.010306
vn -0.869979 0.492982 0.010306
vn -0.869954 0.493025 -0.010306
vn -0.869954 0.493025 -0.010306
vn -0.869954 0.493025 -0.010306
vn -0.869954 0.493025 -0.010306
vn -0.851332 0.519425 -0.073693
vn -0.851332 0.519425 -0.073693
vn -0.851332 0.519425 -0.073693
vn -0.851332 0.519425 -0.073693
vn -0.645807 0.638728 -0.418282
vn -0.645807 0.638728 -0.418282
vn -0.645807 0.638728 -0.418282
vn -0.645807 0.638728 -0.418282
vn -0.419923 0.665205 -0.617388
vn -0.419923 0.665205 -0.617387
vn -0.419923 0.665205 -0.617388
vn -0.419923 0.665205 -0.617388
vn -0.106265 0.621083 -0.776507
vn -0.106265 0.621083 -0.776507
vn -0.106265 0.621083 -0.776507
vn -0.106265 0.621083 -0.776507
vn -0.039014 0.609715 -0.791660
vn -0.039014 0.609715 -0.791660
vn -0.039014 0.609715 -0.791660
vn -0.039014 0.609715 -0.791660
vn -0.003141 0.609327 -0.792913
vn -0.003141 0.609327 -0.792913
vn -0.003141 0.609327 -0.792913
vn -0.003141 0.609327 -0.792913
vn -0.875994 0.000000 -0.482323
vn -0.875994 0.000000 -0.482323
vn -0.875994 0.000000 -0.482323
vn -0.875994 0.000000 -0.482323
vn -0.003141 -0.609334 -0.792908
vn -0.003141 -0.609334 -0.792908
vn -0.003141 -0.609334 -0.792908
vn -0.003141 -0.609334 -0.792908
vn 0.187121 0.000000 0.982337
vn 0.187121 0.000000 0.982337
vn 0.006273 0.000000 0.999980
vn 0.006273 0.000000 0.999980
vn 0.187121 0.000000 -0.982337
vn 0.187121 0.000000 -0.982337
vn 0.006273 0.000000 -0.999980
vn 0.006273 0.000000 -0.999980
vn -1.000000 0.000000 -0.000005
vn -1.000000 0.000000 -0.000005
vn -1.000000 0.000000 -0.000005
vn -1.000000 0.000000 -0.000005
vn 0.000000 -1.000000 -0.000003
vn 0.000000 -1.000000 -0.000003
vn 0.000000 -1.000000 -0.000003
vn 0.000000 -1.000000 -0.000003
vn 0.000000 1.000000 -0.000003
vn 0.000000 1.000000 -0.000003
vn 0.000000 1.000000 -0.000003
vn 0.000000 1.000000 -0.000003
s 1
g polySurface36
usemtl initialShadingGroup
f 1/75/1 23/76/2 22/77/3 2/78/4
f 4/95/5 21/96/6 20/97/7 3/98/8
f 18/1/9 11/2/10 16/3/11 19/4/12
f 18/1/9 19/4/12 5/11/13 10/12/14
f 20/97/7 21/96/6 8/101/15 7/102/16
f 22/77/3 23/76/2 14/81/17 13/82/18
f 28/31/19 24/32/20 9/28/21 6/27/22
f 8/101/15 24/106/20 28/107/19 7/102/16
f 29/19/23 25/20/24 10/12/14 5/11/13
f 6/27/22 9/28/21 25/20/24 29/19/23
f 30/23/25 26/24/26 15/16/27 12/15/28
f 14/81/17 26/86/26 30/87/25 13/82/18
f 17/7/29 27/8/30 16/3/11 11/2/10
f 12/15/28 15/16/27 27/8/30 17/7/29
s 4
f 31/115/31 32/116/32 52/117/33 53/118/34
f 34/123/35 33/124/36 50/125/37 51/126/38
f 38/128/39 37/127/40 58/129/41 54/130/42
f 58/43/41 36/39/43 39/40/44 54/44/42
f 36/39/43 59/33/45 55/36/46 39/40/44
f 59/33/45 35/34/47 40/35/48 55/36/46
f 44/120/49 43/119/50 60/121/51 56/122/52
f 60/49/51 42/47/53 45/48/54 56/50/52
f 42/47/53 47/45/55 57/46/56 45/48/54
f 47/45/55 41/42/57 46/41/58 57/46/56
f 48/37/59 40/35/48 35/34/47 49/38/60
f 48/37/59 49/38/60 46/41/58 41/42/57
f 50/125/37 37/127/40 38/128/39 51/126/38
f 52/117/33 43/119/50 44/120/49 53/118/34
s off
f 20/97/61 7/102/62 37/108/63 50/104/64
f 7/102/65 28/107/66 58/110/67 37/108/68
f 28/107/69 6/113/70 36/114/71 58/110/72
f 6/27/73 29/19/74 59/26/75 36/30/76
f 29/19/77 5/11/78 35/18/79 59/26/80
f 5/11/81 19/4/82 49/10/83 35/18/84
f 19/4/85 16/3/86 46/9/87 49/10/88
f 16/3/89 27/8/90 57/17/91 46/9/92
f 27/8/93 15/16/94 45/25/95 57/17/96
f 15/91/97 26/86/98 56/89/99 45/92/100
f 26/86/101 14/81/102 44/85/103 56/89/104
f 14/81/105 23/76/106 53/80/107 44/85/108
f 31/79/109 53/80/110 23/76/111 1/75/112
f 31/51/113 1/52/114 2/53/115 32/54/116
f 32/83/117 2/78/118 22/77/119 52/84/120
f 22/77/121 13/82/122 43/88/123 52/84/124
f 13/82/125 30/87/126 60/90/127 43/88/128
f 30/87/129 12/93/130 42/94/131 60/90/132
f 12/15/133 17/7/134 47/14/135 42/22/136
f 17/7/137 11/2/138 41/6/139 47/14/140
f 11/2/141 18/1/142 48/5/143 41/6/144
f 18/1/145 10/12/146 40/13/147 48/5/148
f 10/12/149 25/20/150 55/21/151 40/13/152
f 25/20/153 9/28/154 39/29/155 55/21/156
f 9/111/157 24/106/158 54/109/159 39/112/160
f 24/106/161 8/101/162 38/105/163 54/109/164
f 8/101/165 21/96/166 51/100/167 38/105/168
f 34/99/169 51/100/170 21/96/171 4/95/172
f 33/55/173 34/56/174 4/57/175 3/58/176
f 33/103/177 3/98/178 20/97/179 50/104/180
s 6
f 61/131/181 62/132/182 68/133/183 67/134/184
f 63/135/185 64/136/186 65/137/187 66/138/188
f 63/59/185 62/60/182 61/61/181 64/62/186
s off
f 65/63/189 67/64/190 68/65/191 66/66/192
f 64/67/193 61/68/194 67/69/195 65/70/196
f 63/71/197 66/72/198 68/73/199 62/74/200
