# This file uses centimeters as units for non-parametric coordinates.

mtllib prego.mtl
g default
v -12.449918 5.804040 9.434690
v -12.449918 6.596601 9.434690
v -12.449918 7.389162 9.434690
v -12.449918 5.804040 9.650130
v -12.449918 6.596601 9.650130
v -12.449918 7.389162 9.650130
v -11.331314 5.804040 9.636618
v -11.359275 5.804040 9.643730
v -11.359276 6.596601 9.643730
v -11.331314 6.596601 9.636618
v -11.359275 7.389162 9.643730
v -11.331314 7.389162 9.636618
v -11.331314 7.389162 9.448201
v -11.359275 7.389162 9.441090
v -11.359276 6.596601 9.441090
v -11.331314 6.596601 9.448201
v -11.359275 5.804040 9.441090
v -11.331314 5.804040 9.448201
v -11.327239 7.389162 9.454407
v -11.327239 6.596601 9.454407
v -11.324241 7.389162 9.542410
v -11.324240 6.596601 9.542410
v -11.324241 5.804040 9.542410
v -11.409842 5.804040 9.646189
v -11.409842 6.596601 9.646189
v -11.359275 6.992882 9.643730
v -11.409842 7.389162 9.646189
v -11.409842 7.389162 9.438631
v -11.409842 6.596601 9.438631
v -11.359275 6.200321 9.441090
v -11.409842 5.804040 9.438631
v -11.331314 6.992882 9.636618
v -11.337546 7.389162 9.640798
v -11.327239 7.389162 9.630413
v -11.331314 6.200321 9.448201
v -11.337546 5.804040 9.444022
v -11.327239 5.804040 9.454407
v -12.449918 6.992882 9.434690
v -12.449918 6.200321 9.434690
v -12.449918 6.200321 9.650130
v -12.449918 6.992882 9.650130
v -11.337546 5.804040 9.640798
v -11.331314 6.200321 9.636618
v -11.337546 6.596601 9.640798
v -11.359275 6.200321 9.643730
v -11.327239 5.804040 9.630413
v -11.327239 6.596601 9.630413
v -11.337546 7.389162 9.444022
v -11.331314 6.992882 9.448201
v -11.337546 6.596601 9.444022
v -11.359275 6.992882 9.441090
v -11.337546 6.200321 9.640798
v -11.327239 6.200321 9.630413
v -11.337546 6.992882 9.444022
v -11.327239 6.992882 9.454407
v -11.324241 6.992882 9.542410
v -11.324241 6.200321 9.542410
v -11.409842 6.200321 9.646189
v -11.409842 6.992882 9.646189
v -11.409842 6.992882 9.438631
v -11.409842 6.200321 9.438631
v -11.337546 6.992882 9.640798
v -11.327239 6.992882 9.630413
v -11.337546 6.200321 9.444022
v -11.327239 6.200321 9.454407
v -12.451821 5.799624 9.431234
v -12.451821 6.596601 9.431234
v -12.451821 7.393578 9.431234
v -12.451821 5.799624 9.653586
v -12.451821 6.596601 9.653586
v -12.451821 7.393578 9.653586
v -11.328849 5.799624 9.639641
v -11.356920 5.799624 9.646981
v -11.356920 6.596601 9.646981
v -11.328849 6.596601 9.639641
v -11.356920 7.393578 9.646981
v -11.328849 7.393578 9.639641
v -11.328849 7.393578 9.445179
v -11.356920 7.393578 9.437839
v -11.356920 6.596601 9.437839
v -11.328849 6.596601 9.445179
v -11.356920 5.799624 9.437839
v -11.328849 5.799624 9.445179
v -11.324757 7.393578 9.451583
v -11.324757 6.596601 9.451583
v -11.321748 7.393578 9.542410
v -11.321748 6.596601 9.542410
v -11.321748 5.799624 9.542410
v -11.407683 5.799624 9.649519
v -11.407683 6.596601 9.649519
v -11.356920 6.995090 9.646981
v -11.407683 7.393578 9.649519
v -11.407683 7.393578 9.435300
v -11.407683 6.596601 9.435300
v -11.356920 6.198113 9.437839
v -11.407683 5.799624 9.435300
v -11.328849 6.995090 9.639641
v -11.335105 7.393578 9.643955
v -11.324757 7.393578 9.633237
v -11.328849 6.198113 9.445179
v -11.335105 5.799624 9.440864
v -11.324757 5.799624 9.451583
v -12.451821 6.995090 9.431234
v -12.451821 6.198113 9.431234
v -12.451821 6.198113 9.653586
v -12.451821 6.995090 9.653586
v -11.335105 5.799624 9.643955
v -11.328849 6.198113 9.639641
v -11.335105 6.596601 9.643955
v -11.356920 6.198113 9.646981
v -11.324757 5.799624 9.633237
v -11.324757 6.596601 9.633237
v -11.335105 7.393578 9.440864
v -11.328849 6.995090 9.445179
v -11.335105 6.596601 9.440864
v -11.356920 6.995090 9.437839
v -11.335105 6.198113 9.643955
v -11.324757 6.198113 9.633237
v -11.335105 6.995090 9.440864
v -11.324757 6.995090 9.451583
v -11.321748 6.995090 9.542410
v -11.321748 6.198113 9.542410
v -11.407683 6.198113 9.649519
v -11.407683 6.995090 9.649519
v -11.407683 6.995090 9.435300
v -11.407683 6.198113 9.435300
v -11.335105 6.995090 9.643955
v -11.324757 6.995090 9.633237
v -11.335105 6.198113 9.440864
v -11.324757 6.198113 9.451583
v -11.335434 5.818177 9.640084
v -11.335434 7.375026 9.640084
v -11.335434 7.375026 9.444736
v -11.335434 5.818177 9.444736
v -12.395880 5.818177 9.438084
v -12.395880 7.375026 9.438084
v -12.395881 5.818177 9.646736
v -12.395881 7.375026 9.646736
vt 0.543904 0.189036
vt 0.564557 0.189036
vt 0.564557 0.282040
vt 0.543904 0.282040
vt 0.564557 0.096032
vt 0.543904 0.096032
vt 0.585211 0.189036
vt 0.585211 0.282040
vt 0.564557 0.375043
vt 0.543904 0.375043
vt 0.542447 0.282040
vt 0.542447 0.189036
vt 0.585211 0.096032
vt 0.542447 0.096032
vt 0.564557 0.003028
vt 0.543904 0.003028
vt 0.586667 0.189036
vt 0.586667 0.282040
vt 0.585211 0.375043
vt 0.564557 0.376080
vt 0.543241 0.376080
vt 0.542447 0.375043
vt 0.541466 0.282040
vt 0.541466 0.189036
vt 0.585211 0.003028
vt 0.586667 0.096032
vt 0.541466 0.096032
vt 0.542447 0.003028
vt 0.564557 0.001992
vt 0.543241 0.001992
vt 0.587648 0.189036
vt 0.587648 0.282040
vt 0.586667 0.375043
vt 0.585874 0.376080
vt 0.541738 0.376080
vt 0.541466 0.375043
vt 0.585874 0.001992
vt 0.586667 0.003028
vt 0.587648 0.096032
vt 0.541466 0.003028
vt 0.541738 0.001992
vt 0.587648 0.375043
vt 0.587377 0.376080
vt 0.587377 0.001992
vt 0.587648 0.003028
vt 0.645882 0.473437
vt 0.645882 0.379915
vt 0.667199 0.379915
vt 0.667199 0.473437
vt 0.644379 0.379915
vt 0.644379 0.473437
vt 0.688515 0.379915
vt 0.688515 0.473437
vt 0.645882 0.566959
vt 0.667199 0.566959
vt 0.644379 0.566959
vt 0.643367 0.379915
vt 0.643367 0.473437
vt 0.690018 0.473437
vt 0.690018 0.379915
vt 0.688515 0.566959
vt 0.667199 0.660481
vt 0.645882 0.660481
vt 0.644379 0.660481
vt 0.643367 0.566959
vt 0.690018 0.566959
vt 0.691030 0.473437
vt 0.691030 0.379915
vt 0.688515 0.660481
vt 0.667199 0.754003
vt 0.645882 0.754003
vt 0.644379 0.754003
vt 0.643367 0.660481
vt 0.690018 0.660481
vt 0.691030 0.566959
vt 0.688515 0.754003
vt 0.643367 0.754003
vt 0.690018 0.754003
vt 0.691030 0.660481
vt 0.691030 0.754003
vt 0.637471 0.380952
vt 0.637471 0.473955
vt 0.636660 0.473437
vt 0.636660 0.379915
vt 0.637471 0.566959
vt 0.636660 0.566959
vt 0.637471 0.659963
vt 0.636660 0.660481
vt 0.637471 0.752966
vt 0.636660 0.754003
vt 0.629953 0.752966
vt 0.629953 0.659963
vt 0.630764 0.660481
vt 0.630764 0.754003
vt 0.629953 0.566959
vt 0.630764 0.566959
vt 0.629953 0.473955
vt 0.630764 0.473437
vt 0.629953 0.380952
vt 0.630764 0.379915
vt 0.114511 0.745295
vt 0.068665 0.745295
vt 0.068665 0.379915
vt 0.114511 0.379915
vt 0.013800 0.379915
vt 0.062769 0.379915
vt 0.062769 0.745295
vt 0.013800 0.745295
vt 0.003475 0.749130
vt 0.049322 0.749130
vt 0.050883 0.998008
vt 0.001914 0.998008
vt 0.105693 0.749130
vt 0.107254 0.998008
vt 0.058285 0.998008
vt 0.059847 0.749130
vt 0.002361 0.282040
vt 0.002361 0.189036
vt 0.246458 0.189036
vt 0.246458 0.282040
vt 0.002361 0.096032
vt 0.246458 0.096032
vt 0.258326 0.189036
vt 0.258326 0.282040
vt 0.246458 0.375043
vt 0.002361 0.375043
vt 0.002361 0.003028
vt 0.246458 0.003028
vt 0.258326 0.096032
vt 0.263425 0.189036
vt 0.263425 0.282040
vt 0.258326 0.375043
vt 0.001914 0.376080
vt 0.246965 0.376080
vt 0.001914 0.001992
vt 0.246965 0.001992
vt 0.258326 0.003028
vt 0.263425 0.096032
vt 0.263425 0.375043
vt 0.258878 0.376080
vt 0.258878 0.001992
vt 0.263425 0.003028
vt 0.263998 0.376080
vt 0.263998 0.001992
vt 0.264888 0.375043
vt 0.265467 0.376080
vt 0.264888 0.003028
vt 0.265467 0.001992
vt 0.272231 0.282040
vt 0.272231 0.189036
vt 0.516328 0.189036
vt 0.516328 0.282040
vt 0.272231 0.096032
vt 0.516328 0.096032
vt 0.528195 0.189036
vt 0.528195 0.282040
vt 0.516328 0.375043
vt 0.272231 0.375043
vt 0.272231 0.003028
vt 0.516328 0.003028
vt 0.528195 0.096032
vt 0.533295 0.189036
vt 0.533295 0.282040
vt 0.528195 0.375043
vt 0.271784 0.376080
vt 0.516834 0.376080
vt 0.271784 0.001992
vt 0.516834 0.001992
vt 0.528195 0.003028
vt 0.533295 0.096032
vt 0.533295 0.375043
vt 0.528748 0.376080
vt 0.528748 0.001992
vt 0.533295 0.003028
vt 0.533868 0.376080
vt 0.533868 0.001992
vt 0.534758 0.375043
vt 0.535336 0.376080
vt 0.534758 0.003028
vt 0.535336 0.001992
vt 0.593904 0.095514
vt 0.838955 0.095514
vt 0.838955 0.189036
vt 0.593904 0.189036
vt 0.593904 0.001992
vt 0.838955 0.001992
vt 0.850869 0.095514
vt 0.850869 0.189036
vt 0.593904 0.282558
vt 0.838955 0.282558
vt 0.850869 0.001992
vt 0.855988 0.095514
vt 0.855988 0.189036
vt 0.850869 0.282558
vt 0.593904 0.376080
vt 0.838955 0.376080
vt 0.855988 0.001992
vt 0.855988 0.282558
vt 0.850869 0.376080
vt 0.855988 0.376080
vt 0.696926 0.473437
vt 0.696926 0.379915
vt 0.941977 0.379915
vt 0.941977 0.473437
vt 0.953890 0.379915
vt 0.953890 0.473437
vt 0.941977 0.566959
vt 0.696926 0.566959
vt 0.959010 0.379915
vt 0.959010 0.473437
vt 0.953890 0.566959
vt 0.696926 0.660481
vt 0.941977 0.660481
vt 0.959010 0.566959
vt 0.953890 0.660481
vt 0.941977 0.754003
vt 0.696926 0.754003
vt 0.959010 0.660481
vt 0.953890 0.754003
vt 0.959010 0.754003
vt 0.624058 0.379915
vt 0.624058 0.745295
vt 0.375180 0.745295
vt 0.375180 0.379915
vt 0.369284 0.379915
vt 0.369284 0.745295
vt 0.120406 0.745295
vt 0.120406 0.379915
vn -0.003789 0.000000 0.999993
vn -0.003789 0.000000 0.999993
vn -0.005868 0.000000 0.999983
vn -0.005868 0.000000 0.999983
vn -0.003789 0.000000 0.999993
vn -0.003789 0.000000 0.999993
vn -0.005868 0.000000 0.999983
vn -0.005868 0.000000 0.999983
vn -0.003789 0.000000 -0.999993
vn -0.003789 0.000000 -0.999993
vn -0.005868 0.000000 -0.999983
vn -0.005868 0.000000 -0.999983
vn -0.003789 0.000000 -0.999993
vn -0.005868 0.000000 -0.999983
vn -0.005868 0.000000 -0.999983
vn -0.003789 0.000000 -0.999993
vn -0.074354 0.000000 -0.997232
vn -0.074354 -0.000000 -0.997232
vn -0.246522 -0.000000 -0.969137
vn -0.246525 0.000000 -0.969136
vn -0.709747 0.000000 -0.704457
vn -0.709747 0.000000 -0.704457
vn -0.246520 0.000000 -0.969138
vn -0.709747 0.000000 -0.704457
vn -0.074353 0.000000 -0.997232
vn -0.997194 0.000000 -0.074867
vn -0.997194 0.000000 -0.074864
vn -0.997193 0.000000 -0.074870
vn -0.074364 0.000000 0.997231
vn -0.074364 0.000000 0.997231
vn -0.246473 0.000000 0.969150
vn -0.246475 0.000000 0.969149
vn -0.709747 0.000000 0.704457
vn -0.709747 0.000000 0.704457
vn -0.246470 -0.000000 0.969150
vn -0.709747 0.000000 0.704457
vn -0.074364 -0.000000 0.997231
vn -0.997194 0.000000 0.074867
vn -0.997194 0.000000 0.074864
vn -0.997193 0.000000 0.074870
vn -1.000000 0.000000 0.000000
vn -1.000000 0.000000 0.000000
vn -1.000000 0.000000 0.000000
vn -0.997194 0.000000 -0.074867
vn -0.997194 0.000000 -0.074864
vn -1.000000 0.000000 0.000000
vn -1.000000 0.000000 0.000000
vn -0.997194 0.000000 0.074867
vn -0.997194 0.000000 0.074864
vn -0.005868 0.000000 -0.999983
vn -0.003789 0.000000 -0.999993
vn -0.074354 0.000000 -0.997232
vn -0.074354 0.000000 -0.997232
vn -0.005868 0.000000 0.999983
vn -0.003789 0.000000 0.999993
vn -0.074364 -0.000000 0.997231
vn -0.074364 0.000000 0.997231
vn -0.246523 0.000000 -0.969137
vn -0.709747 0.000000 -0.704457
vn -0.246525 0.000000 -0.969137
vn -0.709747 0.000000 -0.704457
vn -0.246473 -0.000000 0.969150
vn -0.709747 0.000000 0.704457
vn -0.246475 0.000000 0.969149
vn -0.709747 0.000000 0.704457
vn 0.003896 0.000000 0.999992
vn 0.006032 0.000000 0.999982
vn 0.006032 0.000000 0.999982
vn 0.003896 0.000000 0.999992
vn 0.003895 0.000000 -0.999992
vn 0.003895 0.000000 -0.999992
vn 0.006032 0.000000 -0.999982
vn 0.006032 0.000000 -0.999982
vn 0.006032 0.000000 -0.999982
vn 0.003895 0.000000 -0.999992
vn 0.003895 0.000000 -0.999992
vn 0.006032 0.000000 -0.999982
vn 0.006032 0.000000 -0.999982
vn 0.003895 0.000000 -0.999992
vn 0.003896 0.000000 0.999992
vn 0.006032 0.000000 0.999982
vn 0.003896 0.000000 0.999992
vn 0.003896 0.000000 0.999992
vn 0.006032 0.000000 0.999982
vn 0.006032 0.000000 0.999982
vn 0.076430 0.000000 0.997075
vn 0.252990 0.000000 0.967469
vn 0.252990 0.000000 0.967469
vn 0.076430 0.000000 0.997075
vn 0.719426 0.000000 0.694569
vn 0.719426 0.000000 0.694569
vn 0.719425 0.000000 0.694570
vn 0.252990 0.000000 0.967469
vn 0.076430 0.000000 0.997075
vn 0.997344 0.000000 0.072834
vn 0.997344 0.000000 0.072834
vn 1.000000 0.000000 0.000000
vn 1.000000 0.000000 0.000000
vn 0.997344 0.000000 0.072834
vn 1.000000 0.000000 0.000000
vn 0.076440 0.000000 -0.997074
vn 0.252989 0.000000 -0.967469
vn 0.252989 0.000000 -0.967469
vn 0.076440 0.000000 -0.997074
vn 0.719426 0.000000 -0.694569
vn 0.719425 0.000000 -0.694570
vn 0.719425 0.000000 -0.694570
vn 0.252990 0.000000 -0.967469
vn 0.076440 0.000000 -0.997074
vn 0.997344 0.000000 -0.072835
vn 0.997344 0.000000 -0.072835
vn 1.000000 0.000000 0.000000
vn 1.000000 0.000000 0.000000
vn 0.997344 0.000000 -0.072835
vn 0.076430 0.000000 0.997075
vn 0.076430 0.000000 0.997075
vn 0.076440 0.000000 -0.997074
vn 0.076440 0.000000 -0.997074
vn 0.252989 0.000000 0.967469
vn 0.719425 0.000000 0.694570
vn 0.719426 0.000000 0.694569
vn 0.252989 0.000000 0.967469
vn 0.997344 0.000000 0.072834
vn 0.997344 0.000000 0.072834
vn 0.252990 0.000000 -0.967469
vn 0.719426 0.000000 -0.694569
vn 0.719426 0.000000 -0.694569
vn 0.252990 0.000000 -0.967469
vn 0.997344 0.000000 -0.072835
vn 0.997344 0.000000 -0.072835
vn -0.039017 -0.609762 -0.791624
vn -0.039017 -0.609762 -0.791624
vn -0.039017 -0.609762 -0.791624
vn -0.039017 -0.609762 -0.791624
vn -0.106259 -0.621046 -0.776537
vn -0.106259 -0.621046 -0.776537
vn -0.106259 -0.621047 -0.776537
vn -0.106259 -0.621047 -0.776537
vn -0.419973 -0.665178 -0.617382
vn -0.419973 -0.665178 -0.617382
vn -0.419973 -0.665178 -0.617382
vn -0.419973 -0.665178 -0.617382
vn -0.645717 -0.638803 -0.418306
vn -0.645717 -0.638803 -0.418306
vn -0.645717 -0.638803 -0.418306
vn -0.645717 -0.638803 -0.418306
vn -0.866932 -0.497574 -0.029122
vn -0.866933 -0.497574 -0.029122
vn -0.866932 -0.497574 -0.029122
vn -0.866932 -0.497574 -0.029122
vn -0.866927 -0.497583 0.029123
vn -0.866927 -0.497583 0.029123
vn -0.866927 -0.497583 0.029123
vn -0.866927 -0.497583 0.029123
vn -0.645920 -0.638623 0.418268
vn -0.645920 -0.638623 0.418268
vn -0.645920 -0.638623 0.418268
vn -0.645920 -0.638623 0.418268
vn -0.419871 -0.665237 0.617388
vn -0.419871 -0.665237 0.617388
vn -0.419871 -0.665237 0.617388
vn -0.419871 -0.665237 0.617388
vn -0.106217 -0.621101 0.776500
vn -0.106217 -0.621101 0.776500
vn -0.106217 -0.621101 0.776500
vn -0.106217 -0.621101 0.776500
vn -0.039063 -0.609777 0.791610
vn -0.039063 -0.609777 0.791610
vn -0.039063 -0.609777 0.791610
vn -0.039063 -0.609777 0.791610
vn -0.003045 -0.609403 0.792855
vn -0.003045 -0.609403 0.792855
vn -0.003045 -0.609403 0.792855
vn -0.003045 -0.609403 0.792855
vn -0.875943 0.000000 0.482415
vn -0.875943 0.000000 0.482415
vn -0.875943 0.000000 0.482415
vn -0.875943 0.000000 0.482415
vn -0.875948 0.000000 0.482406
vn -0.875948 0.000000 0.482405
vn -0.875948 0.000000 0.482405
vn -0.875948 0.000000 0.482406
vn -0.875953 0.000000 0.482397
vn -0.875953 0.000000 0.482397
vn -0.875953 0.000000 0.482397
vn -0.875953 0.000000 0.482397
vn -0.875957 0.000000 0.482388
vn -0.875957 0.000000 0.482388
vn -0.875957 0.000000 0.482388
vn -0.875957 0.000000 0.482388
vn -0.003045 0.609343 0.792901
vn -0.003045 0.609343 0.792901
vn -0.003045 0.609343 0.792901
vn -0.003045 0.609343 0.792901
vn -0.039065 0.609832 0.791568
vn -0.039065 0.609832 0.791568
vn -0.039065 0.609832 0.791568
vn -0.039065 0.609832 0.791568
vn -0.106226 0.621156 0.776454
vn -0.106226 0.621156 0.776454
vn -0.106226 0.621156 0.776454
vn -0.106226 0.621156 0.776454
vn -0.419865 0.665175 0.617459
vn -0.419865 0.665175 0.617459
vn -0.419865 0.665175 0.617459
vn -0.419865 0.665175 0.617458
vn -0.645875 0.638688 0.418239
vn -0.645875 0.638688 0.418239
vn -0.645875 0.638688 0.418239
vn -0.645875 0.638688 0.418239
vn -0.866927 0.497583 0.029120
vn -0.866927 0.497583 0.029120
vn -0.866927 0.497583 0.029120
vn -0.866927 0.497583 0.029120
vn -0.866933 0.497574 -0.029114
vn -0.866933 0.497574 -0.029114
vn -0.866933 0.497574 -0.029114
vn -0.866933 0.497574 -0.029114
vn -0.645807 0.638728 -0.418282
vn -0.645807 0.638728 -0.418282
vn -0.645807 0.638728 -0.418282
vn -0.645807 0.638728 -0.418282
vn -0.419923 0.665205 -0.617387
vn -0.419923 0.665205 -0.617387
vn -0.419923 0.665205 -0.617388
vn -0.419923 0.665205 -0.617388
vn -0.106265 0.621083 -0.776507
vn -0.106265 0.621083 -0.776507
vn -0.106265 0.621083 -0.776507
vn -0.106265 0.621083 -0.776507
vn -0.039014 0.609715 -0.791660
vn -0.039014 0.609715 -0.791660
vn -0.039014 0.609715 -0.791660
vn -0.039014 0.609715 -0.791660
vn -0.003047 0.609275 -0.792953
vn -0.003047 0.609275 -0.792953
vn -0.003047 0.609275 -0.792953
vn -0.003047 0.609275 -0.792953
vn -0.875981 0.000000 -0.482345
vn -0.875981 0.000000 -0.482345
vn -0.875981 0.000000 -0.482345
vn -0.875981 0.000000 -0.482345
vn -0.875989 0.000000 -0.482330
vn -0.875989 0.000000 -0.482330
vn -0.875989 0.000000 -0.482330
vn -0.875989 0.000000 -0.482330
vn -0.875998 0.000000 -0.482315
vn -0.875998 0.000000 -0.482315
vn -0.875998 0.000000 -0.482315
vn -0.875998 0.000000 -0.482315
vn -0.876006 0.000000 -0.482301
vn -0.876006 0.000000 -0.482301
vn -0.876006 0.000000 -0.482301
vn -0.876006 0.000000 -0.482301
vn -0.003047 -0.609332 -0.792909
vn -0.003047 -0.609332 -0.792909
vn -0.003047 -0.609332 -0.792909
vn -0.003047 -0.609332 -0.792909
vn 0.187121 0.000000 0.982337
vn 0.187121 0.000000 0.982337
vn 0.006273 0.000000 0.999980
vn 0.006273 0.000000 0.999980
vn 0.187121 0.000000 -0.982337
vn 0.187121 0.000000 -0.982337
vn 0.006273 0.000000 -0.999980
vn 0.006273 0.000000 -0.999980
vn -1.000000 0.000000 -0.000005
vn -1.000000 0.000000 -0.000005
vn -1.000000 0.000000 -0.000005
vn -1.000000 0.000000 -0.000005
vn 0.000000 -1.000000 -0.000003
vn 0.000000 -1.000000 -0.000003
vn 0.000000 -1.000000 -0.000003
vn 0.000000 -1.000000 -0.000003
vn 0.000000 1.000000 -0.000003
vn 0.000000 1.000000 -0.000003
vn 0.000000 1.000000 -0.000003
vn 0.000000 1.000000 -0.000003
s 1
g polySurface35
usemtl initialShadingGroup
f 38/117/1 2/118/2 29/119/3 60/120/4
f 39/121/5 1/127/6 31/128/7 61/122/8
f 40/149/9 5/150/10 25/151/11 58/152/12
f 6/159/13 27/160/14 59/154/15 41/153/16
f 8/164/17 45/156/18 52/163/19 42/171/20
f 42/45/20 52/39/19 43/26/21 7/38/22
f 52/39/19 44/31/23 10/17/24 43/26/21
f 45/156/18 9/155/25 44/162/23 52/163/19
f 7/38/22 43/26/21 53/13/26 46/25/27
f 43/26/21 10/17/24 47/7/28 53/13/26
f 14/132/29 51/124/30 54/131/31 48/139/32
f 48/36/32 54/23/31 49/11/33 13/22/34
f 54/23/31 50/24/35 16/12/36 49/11/33
f 51/124/30 15/123/37 50/130/35 54/131/31
f 13/22/34 49/11/33 55/4/38 19/10/39
f 49/11/33 16/12/36 20/1/40 55/4/38
f 20/1/40 22/2/41 56/3/42 55/4/38
f 55/4/38 56/3/42 21/9/43 19/10/39
f 21/9/43 56/3/42 63/8/44 34/19/45
f 56/3/42 22/2/41 47/7/28 63/8/44
f 47/7/28 22/2/41 57/5/46 53/13/26
f 53/13/26 57/5/46 23/15/47 46/25/27
f 23/15/47 57/5/46 65/6/48 37/16/49
f 57/5/46 22/2/41 20/1/40 65/6/48
f 40/149/9 58/152/12 24/157/50 4/158/51
f 24/157/50 58/152/12 45/156/18 8/164/17
f 58/152/12 25/151/11 9/155/25 45/156/18
f 41/153/16 59/154/15 25/151/11 5/150/10
f 25/151/11 59/154/15 26/161/52 9/155/25
f 59/154/15 27/160/14 11/169/53 26/161/52
f 38/117/1 60/120/4 28/125/54 3/126/55
f 28/125/54 60/120/4 51/124/30 14/132/29
f 60/120/4 29/119/3 15/123/37 51/124/30
f 39/121/5 61/122/8 29/119/3 2/118/2
f 29/119/3 61/122/8 30/129/56 15/123/37
f 61/122/8 31/128/7 17/137/57 30/129/56
f 9/155/25 26/161/52 62/170/58 44/162/23
f 44/31/23 62/32/58 32/18/59 10/17/24
f 62/32/58 33/42/60 12/33/61 32/18/59
f 26/161/52 11/169/53 33/174/60 62/170/58
f 10/17/24 32/18/59 63/8/44 47/7/28
f 32/18/59 12/33/61 34/19/45 63/8/44
f 15/123/37 30/129/56 64/138/62 50/130/35
f 50/24/35 64/27/62 35/14/63 16/12/36
f 64/27/62 36/40/64 18/28/65 35/14/63
f 30/129/56 17/137/57 36/142/64 64/138/62
f 16/12/36 35/14/63 65/6/48 20/1/40
f 35/14/63 18/28/65 37/16/49 65/6/48
s 7
f 105/181/66 123/182/67 90/183/68 70/184/69
f 103/201/70 68/202/71 93/203/72 125/204/73
f 103/201/70 125/204/73 94/207/74 67/208/75
f 104/212/76 126/213/77 96/216/78 66/217/79
f 104/212/76 67/208/75 94/207/74 126/213/77
f 105/181/66 69/185/80 89/186/81 123/182/67
f 71/195/82 106/189/83 124/190/84 92/196/85
f 106/189/83 70/184/69 90/183/68 124/190/84
f 73/191/86 107/197/87 117/192/88 110/187/89
f 107/57/87 72/50/90 108/51/91 117/58/88
f 117/58/88 108/51/91 75/56/92 109/65/93
f 110/187/89 117/192/88 109/193/93 74/188/94
f 72/50/90 111/47/95 118/46/96 108/51/91
f 118/46/96 111/47/95 88/48/97 122/49/98
f 112/54/99 118/46/96 122/49/98 87/55/100
f 108/51/91 118/46/96 112/54/99 75/56/92
f 79/205/101 113/209/102 119/210/103 116/206/104
f 113/80/102 78/78/105 114/74/106 119/79/103
f 119/79/103 114/74/106 81/66/107 115/75/108
f 116/206/104 119/210/103 115/214/108 80/211/109
f 78/78/105 84/76/110 120/69/111 114/74/106
f 120/69/111 84/76/110 86/70/112 121/62/113
f 85/61/114 120/69/111 121/62/113 87/55/100
f 114/74/106 120/69/111 85/61/114 81/66/107
f 89/186/81 73/191/86 110/187/89 123/182/67
f 123/182/67 110/187/89 74/188/94 90/183/68
f 90/183/68 74/188/94 91/194/115 124/190/84
f 124/190/84 91/194/115 76/199/116 92/196/85
f 93/203/72 79/205/101 116/206/104 125/204/73
f 125/204/73 116/206/104 80/211/109 94/207/74
f 94/207/74 80/211/109 95/215/117 126/213/77
f 126/213/77 95/215/117 82/219/118 96/216/78
f 74/188/94 109/193/93 127/198/119 91/194/115
f 109/65/93 75/56/92 97/64/120 127/73/119
f 127/73/119 97/64/120 77/72/121 98/77/122
f 91/194/115 127/198/119 98/200/122 76/199/116
f 75/56/92 112/54/99 128/63/123 97/64/120
f 121/62/113 128/63/123 112/54/99 87/55/100
f 86/70/112 99/71/124 128/63/123 121/62/113
f 97/64/120 128/63/123 99/71/124 77/72/121
f 80/211/109 115/214/108 129/218/125 95/215/117
f 115/75/108 81/66/107 100/59/126 129/67/125
f 129/67/125 100/59/126 83/60/127 101/68/128
f 95/215/117 129/218/125 101/220/128 82/219/118
f 81/66/107 85/61/114 130/53/129 100/59/126
f 122/49/98 130/53/129 85/61/114 87/55/100
f 88/48/97 102/52/130 130/53/129 122/49/98
f 100/59/126 130/53/129 102/52/130 83/60/127
s off
f 24/157/131 8/164/132 73/172/133 89/166/134
f 8/164/135 42/171/136 107/175/137 73/172/138
f 42/171/139 7/177/140 72/178/141 107/175/142
f 7/38/143 46/25/144 111/37/145 72/44/146
f 88/29/147 111/37/148 46/25/149 23/15/150
f 88/29/151 23/15/152 37/16/153 102/30/154
f 37/16/155 18/28/156 83/41/157 102/30/158
f 18/147/159 36/142/160 101/144/161 83/148/162
f 36/142/163 17/137/164 82/141/165 101/144/166
f 17/137/167 31/128/168 96/136/169 82/141/170
f 66/135/171 96/136/172 31/128/173 1/127/174
f 1/81/175 39/82/176 104/83/177 66/84/178
f 39/82/179 2/85/180 67/86/181 104/83/182
f 2/85/183 38/87/184 103/88/185 67/86/186
f 38/87/187 3/89/188 68/90/189 103/88/190
f 68/133/191 3/126/192 28/125/193 93/134/194
f 28/125/195 14/132/196 79/140/197 93/134/198
f 14/132/199 48/139/200 113/143/201 79/140/202
f 48/139/203 13/145/204 78/146/205 113/143/206
f 13/22/207 19/10/208 84/21/209 78/35/210
f 86/20/211 84/21/212 19/10/213 21/9/214
f 86/20/215 21/9/216 34/19/217 99/34/218
f 34/19/219 12/33/220 77/43/221 99/34/222
f 12/179/223 33/174/224 98/176/225 77/180/226
f 33/174/227 11/169/228 76/173/229 98/176/230
f 11/169/231 27/160/232 92/168/233 76/173/234
f 71/167/235 92/168/236 27/160/237 6/159/238
f 6/91/239 41/92/240 106/93/241 71/94/242
f 41/92/243 5/95/244 70/96/245 106/93/246
f 5/95/247 40/97/248 105/98/249 70/96/250
f 40/97/251 4/99/252 69/100/253 105/98/254
f 69/165/255 4/158/256 24/157/257 89/166/258
s 11
f 131/221/259 132/222/260 138/223/261 137/224/262
f 133/225/263 134/226/264 135/227/265 136/228/266
f 133/101/263 132/102/260 131/103/259 134/104/264
s off
f 135/105/267 137/106/268 138/107/269 136/108/270
f 134/109/271 131/110/272 137/111/273 135/112/274
f 133/113/275 136/114/276 138/115/277 132/116/278
