# This file uses centimeters as units for non-parametric coordinates.

mtllib papertowelunused.mtl
g default
v -56.256409 13.902308 -50.836277
v -56.298105 13.886450 -50.836277
v -56.342661 13.884254 -50.836277
v -56.385714 13.895934 -50.836277
v -56.423054 13.920350 -50.836277
v -56.451017 13.955105 -50.836277
v -56.466878 13.996804 -50.836277
v -56.469074 14.041359 -50.836277
v -56.457391 14.084412 -50.836277
v -56.432979 14.121751 -50.836277
v -56.398220 14.149717 -50.836277
v -56.356524 14.165574 -50.836277
v -56.311964 14.167771 -50.836277
v -56.268912 14.156089 -50.836277
v -56.231574 14.131676 -50.836277
v -56.203611 14.096920 -50.836277
v -56.187750 14.055223 -50.836277
v -56.185559 14.010665 -50.836277
v -56.197238 13.967612 -50.836277
v -56.221650 13.930274 -50.836277
v -56.256409 13.902308 -53.680252
v -56.298105 13.886450 -53.680252
v -56.342661 13.884254 -53.680252
v -56.385714 13.895934 -53.680252
v -56.423054 13.920350 -53.680252
v -56.451017 13.955105 -53.680252
v -56.466878 13.996804 -53.680252
v -56.469074 14.041359 -53.680252
v -56.457391 14.084412 -53.680252
v -56.432979 14.121751 -53.680252
v -56.398220 14.149717 -53.680252
v -56.356524 14.165574 -53.680252
v -56.311964 14.167771 -53.680252
v -56.268912 14.156089 -53.680252
v -56.231574 14.131676 -53.680252
v -56.203611 14.096920 -53.680252
v -56.187750 14.055223 -53.680252
v -56.185559 14.010665 -53.680252
v -56.197238 13.967612 -53.680252
v -56.221650 13.930274 -53.680252
v -56.087733 13.608042 -50.836277
v -56.228624 13.554462 -50.836277
v -56.228624 13.554462 -53.680252
v -56.087733 13.608042 -53.680252
v -56.379168 13.547043 -50.836277
v -56.379168 13.547043 -53.680252
v -56.524639 13.586510 -50.836277
v -56.524639 13.586510 -53.680252
v -56.650792 13.668998 -50.836277
v -56.650792 13.668998 -53.680252
v -56.745285 13.786432 -50.836277
v -56.745285 13.786432 -53.680252
v -56.798863 13.927324 -50.836277
v -56.798863 13.927324 -53.680252
v -56.806282 14.077872 -50.836277
v -56.806282 14.077872 -53.680252
v -56.766815 14.223341 -50.836277
v -56.766815 14.223341 -53.680252
v -56.684323 14.349496 -50.836277
v -56.684323 14.349496 -53.680252
v -56.566894 14.443986 -50.836277
v -56.566894 14.443986 -53.680252
v -56.426009 14.497561 -50.836277
v -56.426009 14.497561 -53.680252
v -56.275457 14.504980 -50.836277
v -56.275457 14.504980 -53.680252
v -56.129982 14.465514 -50.836277
v -56.129982 14.465514 -53.680252
v -56.003829 14.383028 -50.836277
v -56.003829 14.383028 -53.680252
v -55.909340 14.265592 -50.836277
v -55.909340 14.265592 -53.680252
v -55.855762 14.124702 -50.836277
v -55.855762 14.124702 -53.680252
v -55.848346 13.974155 -50.836277
v -55.848346 13.974155 -53.680252
v -55.887813 13.828685 -50.836277
v -55.887813 13.828685 -53.680252
v -55.970297 13.702530 -50.836277
v -55.970297 13.702530 -53.680252
vt 0.044643 0.001992
vt 0.075636 0.001992
vt 0.075636 0.779945
vt 0.044643 0.779945
vt 0.109149 0.001992
vt 0.109149 0.779945
vt 0.019203 0.001992
vt 0.019203 0.779945
vt 0.141901 0.001992
vt 0.141901 0.779945
vt 0.001807 0.001992
vt 0.001807 0.779945
vt 0.170688 0.001992
vt 0.170688 0.779945
vt 0.192690 0.001992
vt 0.192690 0.779945
vt 0.452375 0.779945
vt 0.421380 0.779945
vt 0.421380 0.001992
vt 0.452375 0.001992
vt 0.387866 0.779945
vt 0.387866 0.001992
vt 0.477814 0.779945
vt 0.477814 0.001992
vt 0.355114 0.779945
vt 0.355114 0.001992
vt 0.495209 0.779945
vt 0.495209 0.001992
vt 0.326329 0.779945
vt 0.326329 0.001992
vt 0.304327 0.779945
vt 0.304327 0.001992
vt 0.720715 0.001992
vt 0.730409 0.001992
vt 0.730409 0.779945
vt 0.720715 0.779945
vt 0.740327 0.001992
vt 0.740327 0.779945
vt 0.712196 0.001992
vt 0.712196 0.779945
vt 0.749501 0.001992
vt 0.749501 0.779945
vt 0.705683 0.001992
vt 0.705683 0.779945
vt 0.757029 0.001992
vt 0.757029 0.779945
vt 0.762178 0.001992
vt 0.762178 0.779945
vt 0.648133 0.779945
vt 0.638439 0.779945
vt 0.638439 0.001992
vt 0.648133 0.001992
vt 0.628521 0.779945
vt 0.628521 0.001992
vt 0.656652 0.779945
vt 0.656652 0.001992
vt 0.619348 0.779945
vt 0.619348 0.001992
vt 0.663165 0.779945
vt 0.663165 0.001992
vt 0.611819 0.779945
vt 0.611819 0.001992
vt 0.606670 0.779945
vt 0.606670 0.001992
vt 0.200010 0.001992
vt 0.231003 0.001992
vt 0.231003 0.779945
vt 0.200010 0.779945
vt 0.264516 0.001992
vt 0.264516 0.779945
vt 0.297269 0.001992
vt 0.297269 0.779945
vt 0.599611 0.779945
vt 0.568618 0.779945
vt 0.568618 0.001992
vt 0.599611 0.001992
vt 0.535105 0.779945
vt 0.535105 0.001992
vt 0.502353 0.779945
vt 0.502353 0.001992
vt 0.670321 0.001992
vt 0.680014 0.001992
vt 0.680014 0.779945
vt 0.670321 0.779945
vt 0.689933 0.001992
vt 0.689933 0.779945
vt 0.699106 0.001992
vt 0.699106 0.779945
vt 0.798119 0.779945
vt 0.788425 0.779945
vt 0.788425 0.001992
vt 0.798119 0.001992
vt 0.778506 0.779945
vt 0.778506 0.001992
vt 0.769334 0.779945
vt 0.769334 0.001992
vt 0.814963 0.917812
vt 0.822492 0.911300
vt 0.880347 0.960096
vt 0.854907 0.982098
vt 0.827641 0.902781
vt 0.897744 0.931310
vt 0.805790 0.921679
vt 0.823914 0.995162
vt 0.829904 0.893087
vt 0.905392 0.898558
vt 0.795872 0.922521
vt 0.790401 0.998008
vt 0.829062 0.883169
vt 0.902545 0.865045
vt 0.786178 0.920257
vt 0.757649 0.990359
vt 0.825196 0.873995
vt 0.889483 0.834052
vt 0.777659 0.915109
vt 0.728863 0.972964
vt 0.818684 0.866466
vt 0.867480 0.808611
vt 0.771146 0.907579
vt 0.706861 0.947523
vt 0.810165 0.861318
vt 0.838695 0.791216
vt 0.767280 0.898407
vt 0.693797 0.916529
vt 0.800471 0.859054
vt 0.805943 0.783567
vt 0.766438 0.888488
vt 0.690951 0.883017
vt 0.790553 0.859896
vt 0.772429 0.786414
vt 0.768701 0.878794
vt 0.698601 0.850264
vt 0.781379 0.863763
vt 0.741435 0.799478
vt 0.773850 0.870275
vt 0.715995 0.821479
vt 0.561373 0.917812
vt 0.521429 0.982098
vt 0.495988 0.960096
vt 0.553844 0.911301
vt 0.570545 0.921679
vt 0.552421 0.995162
vt 0.478592 0.931310
vt 0.548695 0.902781
vt 0.580464 0.922521
vt 0.585934 0.998008
vt 0.470944 0.898558
vt 0.546431 0.893087
vt 0.590158 0.920257
vt 0.618687 0.990359
vt 0.473790 0.865045
vt 0.547274 0.883169
vt 0.598677 0.915109
vt 0.647473 0.972964
vt 0.486853 0.834052
vt 0.551139 0.873995
vt 0.605190 0.907579
vt 0.669475 0.947523
vt 0.508855 0.808612
vt 0.557652 0.866467
vt 0.609056 0.898407
vt 0.682538 0.916530
vt 0.537641 0.791216
vt 0.566171 0.861318
vt 0.609898 0.888488
vt 0.685385 0.883017
vt 0.570393 0.783567
vt 0.575865 0.859054
vt 0.607634 0.878794
vt 0.677735 0.850264
vt 0.603907 0.786414
vt 0.585783 0.859896
vt 0.602485 0.870275
vt 0.660340 0.821479
vt 0.634901 0.799478
vt 0.594956 0.863763
vn 0.497285 -0.867587 0.000000
vn 0.204866 -0.978790 0.000000
vn 0.204866 -0.978790 0.000000
vn 0.497285 -0.867587 0.000000
vn -0.107638 -0.994190 0.000000
vn -0.107638 -0.994190 0.000000
vn -0.409592 -0.912269 0.000000
vn -0.409592 -0.912269 0.000000
vn -0.671447 -0.741052 0.000000
vn -0.671447 -0.741052 0.000000
vn -0.867583 -0.497293 0.000000
vn -0.867583 -0.497293 0.000000
vn -0.978792 -0.204856 -0.000000
vn -0.978792 -0.204856 -0.000000
vn -0.994191 0.107634 -0.000000
vn -0.994191 0.107634 -0.000000
vn -0.912264 0.409603 -0.000000
vn -0.912264 0.409603 -0.000000
vn -0.741051 0.671449 -0.000000
vn -0.741051 0.671449 -0.000000
vn -0.497297 0.867580 -0.000000
vn -0.497297 0.867580 -0.000000
vn -0.204849 0.978794 -0.000000
vn -0.204849 0.978794 -0.000000
vn 0.107628 0.994191 -0.000000
vn 0.107628 0.994191 -0.000000
vn 0.409580 0.912274 -0.000000
vn 0.409580 0.912274 -0.000000
vn 0.671456 0.741045 -0.000000
vn 0.671456 0.741045 -0.000000
vn 0.867588 0.497284 -0.000000
vn 0.867588 0.497284 -0.000000
vn 0.978794 0.204849 0.000000
vn 0.978794 0.204849 0.000000
vn 0.994189 -0.107647 0.000000
vn 0.994189 -0.107647 0.000000
vn 0.912274 -0.409580 0.000000
vn 0.912274 -0.409580 0.000000
vn 0.741049 -0.671451 0.000000
vn 0.741049 -0.671451 0.000000
vn -0.000001 -0.000003 -1.000000
vn 0.000000 -0.000000 -1.000000
vn 0.000000 -0.000000 -1.000000
vn -0.000001 -0.000003 -1.000000
vn -0.000002 -0.000004 -1.000000
vn -0.000002 -0.000004 -1.000000
vn -0.000001 -0.000001 -1.000000
vn -0.000001 -0.000001 -1.000000
vn 0.000000 -0.000000 -1.000000
vn 0.000000 -0.000000 -1.000000
vn 0.000002 0.000006 -1.000000
vn 0.000002 0.000006 -1.000000
vn 0.000002 0.000006 -1.000000
vn 0.000002 0.000006 -1.000000
vn 0.000000 -0.000000 -1.000000
vn 0.000000 -0.000000 -1.000000
vn 0.000004 0.000011 -1.000000
vn 0.000004 0.000011 -1.000000
vn 0.000004 0.000011 -1.000000
vn 0.000004 0.000011 -1.000000
vn 0.000000 -0.000000 -1.000000
vn 0.000000 -0.000000 -1.000000
vn 0.000001 0.000003 -1.000000
vn 0.000001 0.000003 -1.000000
vn 0.000001 0.000002 -1.000000
vn 0.000001 0.000002 -1.000000
vn -0.000000 -0.000001 -1.000000
vn -0.000000 -0.000001 -1.000000
vn -0.000002 -0.000006 -1.000000
vn -0.000002 -0.000006 -1.000000
vn -0.000002 -0.000006 -1.000000
vn -0.000002 -0.000006 -1.000000
vn 0.000000 -0.000000 -1.000000
vn 0.000000 -0.000000 -1.000000
vn 0.000000 -0.000000 -1.000000
vn 0.000000 -0.000000 -1.000000
vn 0.000000 -0.000000 -1.000000
vn 0.000000 -0.000000 -1.000000
vn 0.000000 -0.000000 -1.000000
vn 0.000000 -0.000000 -1.000000
vn -0.355473 0.934687 -0.000000
vn -0.355473 0.934687 -0.000000
vn -0.355473 0.934687 -0.000000
vn -0.355473 0.934687 -0.000000
vn -0.626864 0.779129 -0.000000
vn -0.626864 0.779129 -0.000000
vn -0.626864 0.779129 -0.000000
vn -0.626864 0.779129 -0.000000
vn -0.836988 0.547221 -0.000000
vn -0.836988 0.547221 -0.000000
vn -0.836988 0.547221 -0.000000
vn -0.836988 0.547221 -0.000000
vn -0.965119 0.261811 -0.000000
vn -0.965119 0.261811 -0.000000
vn -0.965119 0.261811 -0.000000
vn -0.965119 0.261811 -0.000000
vn -0.998794 -0.049106 -0.000000
vn -0.998794 -0.049106 -0.000000
vn -0.998794 -0.049106 -0.000000
vn -0.998794 -0.049106 -0.000000
vn -0.934659 -0.355545 -0.000000
vn -0.934659 -0.355545 -0.000000
vn -0.934659 -0.355545 -0.000000
vn -0.934659 -0.355545 -0.000000
vn -0.779135 -0.626856 0.000000
vn -0.779135 -0.626856 0.000000
vn -0.779135 -0.626856 0.000000
vn -0.779135 -0.626856 0.000000
vn -0.547255 -0.836966 0.000000
vn -0.547255 -0.836966 0.000000
vn -0.547255 -0.836966 0.000000
vn -0.547255 -0.836966 0.000000
vn -0.261871 -0.965103 0.000000
vn -0.261871 -0.965103 0.000000
vn -0.261871 -0.965103 0.000000
vn -0.261871 -0.965103 0.000000
vn 0.049242 -0.998787 0.000000
vn 0.049242 -0.998787 0.000000
vn 0.049242 -0.998787 0.000000
vn 0.049242 -0.998787 0.000000
vn 0.355458 -0.934692 0.000000
vn 0.355458 -0.934692 0.000000
vn 0.355458 -0.934692 0.000000
vn 0.355458 -0.934692 0.000000
vn 0.626864 -0.779129 0.000000
vn 0.626864 -0.779129 0.000000
vn 0.626864 -0.779129 0.000000
vn 0.626864 -0.779129 0.000000
vn 0.836991 -0.547217 0.000000
vn 0.836991 -0.547217 0.000000
vn 0.836991 -0.547217 0.000000
vn 0.836991 -0.547217 0.000000
vn 0.965096 -0.261897 0.000000
vn 0.965096 -0.261897 0.000000
vn 0.965096 -0.261897 0.000000
vn 0.965096 -0.261897 0.000000
vn 0.998788 0.049226 0.000000
vn 0.998788 0.049226 0.000000
vn 0.998788 0.049226 0.000000
vn 0.998788 0.049226 0.000000
vn 0.934669 0.355519 0.000000
vn 0.934669 0.355519 0.000000
vn 0.934669 0.355519 0.000000
vn 0.934669 0.355519 0.000000
vn 0.779133 0.626858 -0.000000
vn 0.779133 0.626858 -0.000000
vn 0.779133 0.626858 -0.000000
vn 0.779133 0.626858 -0.000000
vn 0.547256 0.836965 -0.000000
vn 0.547256 0.836965 -0.000000
vn 0.547256 0.836965 -0.000000
vn 0.547256 0.836965 -0.000000
vn 0.261832 0.965113 -0.000000
vn 0.261832 0.965113 -0.000000
vn 0.261832 0.965113 -0.000000
vn 0.261832 0.965113 -0.000000
vn -0.049236 0.998787 -0.000000
vn -0.049236 0.998787 -0.000000
vn -0.049236 0.998787 -0.000000
vn -0.049236 0.998787 -0.000000
vn -0.000001 -0.000003 1.000000
vn -0.000001 -0.000003 1.000000
vn -0.000003 -0.000007 1.000000
vn -0.000003 -0.000007 1.000000
vn 0.000001 0.000003 1.000000
vn 0.000001 0.000003 1.000000
vn -0.000000 0.000000 1.000000
vn -0.000000 0.000000 1.000000
vn -0.000001 -0.000001 1.000000
vn -0.000001 -0.000001 1.000000
vn 0.000002 0.000006 1.000000
vn 0.000002 0.000006 1.000000
vn 0.000002 0.000005 1.000000
vn 0.000002 0.000005 1.000000
vn -0.000000 -0.000001 1.000000
vn -0.000000 -0.000001 1.000000
vn -0.000001 -0.000002 1.000000
vn -0.000001 -0.000002 1.000000
vn -0.000001 -0.000002 1.000000
vn -0.000001 -0.000002 1.000000
vn 0.000001 0.000001 1.000000
vn 0.000001 0.000001 1.000000
vn -0.000000 -0.000001 1.000000
vn -0.000000 -0.000001 1.000000
vn -0.000001 -0.000001 1.000000
vn -0.000001 -0.000001 1.000000
vn -0.000000 0.000000 1.000000
vn -0.000000 0.000000 1.000000
vn -0.000001 -0.000001 1.000000
vn -0.000001 -0.000001 1.000000
vn -0.000001 -0.000003 1.000000
vn -0.000001 -0.000003 1.000000
vn -0.000001 -0.000001 1.000000
vn -0.000001 -0.000001 1.000000
vn 0.000000 0.000001 1.000000
vn 0.000000 0.000001 1.000000
vn 0.000001 0.000003 1.000000
vn 0.000001 0.000003 1.000000
vn 0.000001 0.000002 1.000000
vn 0.000001 0.000002 1.000000
s 1
g polySurface754 pCylinder118
usemtl initialShadingGroup
f 41/7/1 42/1/2 43/4/3 44/8/4
f 42/1/2 45/2/5 46/3/6 43/4/3
f 45/2/5 47/5/7 48/6/8 46/3/6
f 47/5/7 49/9/9 50/10/10 48/6/8
f 49/9/9 51/13/11 52/14/12 50/10/10
f 51/13/11 53/15/13 54/16/14 52/14/12
f 53/65/13 55/66/15 56/67/16 54/68/14
f 55/66/15 57/69/17 58/70/18 56/67/16
f 57/69/17 59/71/19 60/72/20 58/70/18
f 59/27/19 61/23/21 62/24/22 60/28/20
f 61/23/21 63/17/23 64/20/24 62/24/22
f 63/17/23 65/18/25 66/19/26 64/20/24
f 65/18/25 67/21/27 68/22/28 66/19/26
f 67/21/27 69/25/29 70/26/30 68/22/28
f 69/25/29 71/29/31 72/30/32 70/26/30
f 71/29/31 73/31/33 74/32/34 72/30/32
f 73/73/33 75/74/35 76/75/36 74/76/34
f 75/74/35 77/77/37 78/78/38 76/75/36
f 77/77/37 79/79/39 80/80/40 78/78/38
f 79/11/39 41/7/1 44/8/4 80/12/40
s 2
f 22/97/41 21/98/42 44/99/43 43/100/44
f 23/103/45 22/97/41 43/100/44 46/104/46
f 24/107/47 23/103/45 46/104/46 48/108/48
f 25/111/49 24/107/47 48/108/48 50/112/50
f 26/115/51 25/111/49 50/112/50 52/116/52
f 27/119/53 26/115/51 52/116/52 54/120/54
f 28/123/55 27/119/53 54/120/54 56/124/56
f 29/127/57 28/123/55 56/124/56 58/128/58
f 30/131/59 29/127/57 58/128/58 60/132/60
f 31/135/61 30/131/59 60/132/60 62/136/62
f 32/133/63 31/135/61 62/136/62 64/134/64
f 33/129/65 32/133/63 64/134/64 66/130/66
f 34/125/67 33/129/65 66/130/66 68/126/68
f 35/121/69 34/125/67 68/126/68 70/122/70
f 36/117/71 35/121/69 70/122/70 72/118/72
f 37/113/73 36/117/71 72/118/72 74/114/74
f 38/109/75 37/113/73 74/114/74 76/110/76
f 39/105/77 38/109/75 76/110/76 78/106/78
f 40/101/79 39/105/77 78/106/78 80/102/80
f 21/98/42 40/101/79 80/102/80 44/99/43
s off
f 2/57/81 1/61/82 21/62/83 22/58/84
f 1/61/85 20/63/86 40/64/87 21/62/88
f 20/81/89 19/82/90 39/83/91 40/84/92
f 19/82/93 18/85/94 38/86/95 39/83/96
f 18/85/97 17/87/98 37/88/99 38/86/100
f 17/43/101 16/39/102 36/40/103 37/44/104
f 16/39/105 15/33/106 35/36/107 36/40/108
f 15/33/109 14/34/110 34/35/111 35/36/112
f 14/34/113 13/37/114 33/38/115 34/35/116
f 13/37/117 12/41/118 32/42/119 33/38/120
f 12/41/121 11/45/122 31/46/123 32/42/124
f 11/45/125 10/47/126 30/48/127 31/46/128
f 10/89/129 9/90/130 29/91/131 30/92/132
f 9/90/133 8/93/134 28/94/135 29/91/136
f 8/93/137 7/95/138 27/96/139 28/94/140
f 7/59/141 6/55/142 26/56/143 27/60/144
f 6/55/145 5/49/146 25/52/147 26/56/148
f 5/49/149 4/50/150 24/51/151 25/52/152
f 4/50/153 3/53/154 23/54/155 24/51/156
f 3/53/157 2/57/158 22/58/159 23/54/160
s 3
f 2/137/161 42/138/162 41/139/163 1/140/164
f 3/141/165 45/142/166 42/138/162 2/137/161
f 4/145/167 47/146/168 45/142/166 3/141/165
f 5/149/169 49/150/170 47/146/168 4/145/167
f 6/153/171 51/154/172 49/150/170 5/149/169
f 7/157/173 53/158/174 51/154/172 6/153/171
f 8/161/175 55/162/176 53/158/174 7/157/173
f 9/165/177 57/166/178 55/162/176 8/161/175
f 10/169/179 59/170/180 57/166/178 9/165/177
f 11/173/181 61/174/182 59/170/180 10/169/179
f 12/176/183 63/175/184 61/174/182 11/173/181
f 13/172/185 65/171/186 63/175/184 12/176/183
f 14/168/187 67/167/188 65/171/186 13/172/185
f 15/164/189 69/163/190 67/167/188 14/168/187
f 16/160/191 71/159/192 69/163/190 15/164/189
f 17/156/193 73/155/194 71/159/192 16/160/191
f 18/152/195 75/151/196 73/155/194 17/156/193
f 19/148/197 77/147/198 75/151/196 18/152/195
f 20/144/199 79/143/200 77/147/198 19/148/197
f 1/140/164 41/139/163 79/143/200 20/144/199
