# This file uses centimeters as units for non-parametric coordinates.

mtllib df.mtl
g default
v -30.065402 16.105862 -49.526935
v -30.082948 16.089272 -49.506831
v -30.066663 16.072079 -49.506831
v -30.049772 16.090229 -49.526935
v -48.475353 16.090229 -49.526935
v -48.458766 16.072685 -49.506831
v -48.441570 16.088970 -49.506831
v -48.459723 16.105862 -49.526935
v -30.049772 0.013432 -49.527777
v -30.066057 0.013432 -49.506831
v -48.459069 0.013432 -49.506831
v -48.475353 0.013432 -49.527777
v -47.882739 15.529202 -49.527355
v -47.898695 15.545646 -49.506831
v -47.915296 15.529202 -49.506831
v -47.898695 15.513244 -49.527355
v -47.898695 0.013437 -49.527777
v -47.914982 0.013437 -49.506831
v -30.626430 15.513244 -49.527355
v -30.609987 15.529202 -49.506831
v -30.626430 15.545803 -49.506831
v -30.642387 15.529202 -49.527355
v -30.610145 0.013437 -49.506831
v -30.626430 0.013437 -49.527777
v -48.442177 16.089272 -50.970215
v -48.458461 16.072079 -50.970215
v -48.475353 16.089905 -50.949684
v -48.459397 16.105862 -50.949684
v -48.475353 0.013432 -50.949265
v -48.459069 0.013432 -50.970215
v -47.864911 15.512310 -49.994625
v -47.882739 15.529202 -49.974097
v -47.898695 15.513573 -49.974516
v -47.881804 15.495419 -49.994625
v -47.881804 15.495419 -50.482422
v -47.898695 15.513244 -50.502947
v -47.883066 15.529203 -50.502525
v -47.864911 15.512310 -50.482422
v -47.882575 15.529203 -50.949476
v -47.898695 15.513244 -50.949684
v -47.915139 15.529202 -50.970215
v -47.898695 15.545646 -50.970215
v -47.882411 0.013437 -49.994625
v -47.898695 0.013437 -49.973675
v -47.898695 0.013437 -50.503373
v -47.882411 0.013437 -50.482422
v -47.914982 0.013437 -50.970215
v -47.898695 0.013437 -50.949265
v -30.066360 16.072685 -50.970215
v -30.083555 16.088970 -50.970215
v -30.065729 16.105862 -50.949684
v -30.049772 16.089905 -50.949684
v -30.643321 15.495419 -49.994625
v -30.626430 15.513244 -49.974097
v -30.642059 15.529202 -49.974516
v -30.660215 15.512310 -49.994625
v -30.660215 15.512310 -50.482422
v -30.642387 15.529202 -50.502947
v -30.626430 15.513573 -50.502525
v -30.643321 15.495419 -50.482422
v -30.626430 15.513080 -50.949476
v -30.642387 15.529202 -50.949684
v -30.626430 15.545646 -50.970215
v -30.609987 15.529202 -50.970215
v -30.066057 0.013432 -50.970215
v -30.049772 0.013432 -50.949265
v -30.626430 0.013437 -49.973675
v -30.642715 0.013437 -49.994625
v -30.642715 0.013437 -50.482422
v -30.626430 0.013437 -50.503373
v -30.626430 0.013437 -50.949265
v -30.610145 0.013437 -50.970215
v -47.503107 15.368494 -49.994625
v -47.519695 15.352042 -49.994625
v -47.502921 15.335868 -50.015429
v -47.486940 15.352041 -50.015424
v -47.544374 0.013437 -50.015571
v -47.560663 0.013437 -49.994625
v -47.486940 15.352041 -50.461623
v -47.502921 15.336027 -50.461821
v -47.519536 15.352042 -50.482422
v -47.503107 15.368494 -50.482422
v -47.560663 0.013437 -50.482422
v -47.544374 0.013437 -50.461472
v -30.955120 15.352042 -49.994625
v -30.971549 15.368647 -49.994625
v -30.987718 15.352041 -50.015424
v -30.971736 15.335868 -50.015429
v -30.971736 15.335868 -50.461615
v -30.987554 15.352041 -50.461834
v -30.971549 15.368494 -50.482422
v -30.955120 15.352042 -50.482422
v -30.964467 0.013437 -49.994625
v -30.980754 0.013437 -50.015571
v -30.980754 0.013437 -50.461472
v -30.964467 0.013437 -50.482422
vt 0.446640 0.002259
vt 0.447078 0.002674
vt 0.433224 0.016528
vt 0.432801 0.016109
vt 0.447501 0.002226
vt 0.447103 0.001828
vt 0.447071 0.470678
vt 0.433220 0.456838
vt 0.432394 0.016528
vt 0.432801 0.016935
vt 0.037268 0.016113
vt 0.037268 0.002243
vt 0.447501 0.471140
vt 0.037268 0.001828
vt 0.446656 0.471116
vt 0.432801 0.457262
vt 0.432801 0.456432
vt 0.037268 0.016528
vt 0.447103 0.471539
vt 0.037268 0.471124
vt 0.037268 0.457254
vt 0.432394 0.456838
vt 0.037268 0.471539
vt 0.037268 0.456838
vt 0.863716 0.002259
vt 0.864154 0.002674
vt 0.850296 0.016528
vt 0.849877 0.016109
vt 0.864171 0.001828
vt 0.864577 0.002235
vt 0.864147 0.470678
vt 0.850296 0.456838
vt 0.849877 0.016939
vt 0.849470 0.016528
vt 0.454344 0.002243
vt 0.454344 0.016113
vt 0.454344 0.001828
vt 0.864577 0.471132
vt 0.863732 0.471116
vt 0.849877 0.457258
vt 0.849877 0.456432
vt 0.454344 0.016528
vt 0.864171 0.471539
vt 0.454344 0.471124
vt 0.454344 0.457254
vt 0.849466 0.456838
vt 0.454344 0.471539
vt 0.454344 0.456838
vt 0.997578 0.914979
vt 0.997147 0.915410
vt 0.993492 0.906179
vt 0.993911 0.905756
vt 0.998008 0.915434
vt 0.997610 0.915840
vt 0.602475 0.915425
vt 0.602475 0.907223
vt 0.993080 0.905751
vt 0.993492 0.905344
vt 0.997578 0.476392
vt 0.993915 0.484328
vt 0.998008 0.475929
vt 0.602475 0.915840
vt 0.602475 0.906808
vt 0.993492 0.484740
vt 0.997147 0.475961
vt 0.993492 0.483909
vt 0.997601 0.475530
vt 0.993080 0.484333
vt 0.602475 0.475945
vt 0.602475 0.484148
vt 0.602475 0.475530
vt 0.602475 0.484563
vt 0.595479 0.475961
vt 0.595909 0.476392
vt 0.592243 0.485615
vt 0.591824 0.485196
vt 0.595933 0.475530
vt 0.596340 0.475929
vt 0.595909 0.914979
vt 0.592243 0.907042
vt 0.591824 0.486027
vt 0.591416 0.485619
vt 0.200807 0.475945
vt 0.200807 0.484147
vt 0.200807 0.475530
vt 0.596340 0.915434
vt 0.595479 0.915410
vt 0.591824 0.907461
vt 0.591824 0.906635
vt 0.200807 0.484563
vt 0.595942 0.915840
vt 0.200807 0.915425
vt 0.200807 0.907223
vt 0.591412 0.907038
vt 0.200807 0.915840
vt 0.200807 0.906808
vt 0.030186 0.002226
vt 0.030186 0.471140
vt 0.001992 0.471132
vt 0.001992 0.002235
vt 0.030186 0.471539
vt 0.001992 0.471539
vt 0.030186 0.001828
vt 0.001992 0.001828
vt 0.880281 0.002235
vt 0.880281 0.441731
vt 0.871428 0.441731
vt 0.871420 0.002226
vt 0.880281 0.442138
vt 0.871420 0.442138
vt 0.880281 0.001828
vt 0.871428 0.001828
vt 0.179676 0.475938
vt 0.179676 0.896541
vt 0.170834 0.896541
vt 0.170829 0.475933
vt 0.179676 0.896948
vt 0.170830 0.896948
vt 0.179676 0.475530
vt 0.170834 0.475530
vt 0.194664 0.475937
vt 0.194672 0.915442
vt 0.185815 0.915429
vt 0.185811 0.475937
vt 0.194664 0.915840
vt 0.185811 0.915840
vt 0.194672 0.475530
vt 0.185815 0.475530
vt 0.164694 0.885365
vt 0.136501 0.885357
vt 0.136509 0.475530
vt 0.164677 0.475530
vt 0.096037 0.475539
vt 0.096028 0.870665
vt 0.087192 0.870665
vt 0.087175 0.475530
vt 0.036072 0.475534
vt 0.036069 0.866139
vt 0.027233 0.866139
vt 0.027226 0.475530
vt 0.066048 0.475530
vt 0.066040 0.870656
vt 0.057204 0.870656
vt 0.057195 0.475530
vt 0.130365 0.475530
vt 0.130349 0.885365
vt 0.102180 0.885365
vt 0.102172 0.475538
vt 0.051052 0.475530
vt 0.051060 0.870656
vt 0.042207 0.870656
vt 0.042216 0.475530
vt 0.021088 0.475530
vt 0.021091 0.866135
vt 0.012249 0.866135
vt 0.012252 0.475530
vt 0.081023 0.475530
vt 0.081040 0.870665
vt 0.072183 0.870652
vt 0.072187 0.475530
vn 0.707110 0.707103 -0.000162
vn 0.707110 0.707103 -0.000162
vn 0.707110 0.707103 -0.000162
vn 0.707110 0.707103 -0.000162
vn 0.000477 0.768251 0.640149
vn 0.001187 0.767940 0.640520
vn -0.001187 0.767945 0.640515
vn -0.000458 0.768264 0.640133
vn 0.000000 0.000000 1.000000
vn 0.000000 0.000000 1.000000
vn 0.000000 0.000000 1.000000
vn 0.000000 0.000000 1.000000
vn 0.777149 0.001336 0.629315
vn 0.777519 0.000511 0.628860
vn 0.777748 -0.000002 0.628576
vn 0.777748 -0.000002 0.628576
vn -0.707132 0.707082 -0.000162
vn -0.707132 0.707082 -0.000162
vn -0.707132 0.707082 -0.000162
vn -0.707132 0.707082 -0.000162
vn -0.780346 0.000541 0.625348
vn -0.779983 0.001349 0.625799
vn -0.780593 -0.000009 0.625040
vn -0.780593 -0.000009 0.625040
vn 0.000000 0.000000 1.000000
vn 0.000000 0.000000 1.000000
vn 0.000000 0.000000 1.000000
vn 0.000000 0.000000 1.000000
vn 0.703496 -0.710699 -0.000261
vn 0.703496 -0.710699 -0.000261
vn 0.703496 -0.710699 -0.000261
vn 0.703496 -0.710699 -0.000261
vn 0.001188 -0.778518 0.627621
vn 0.000534 -0.778767 0.627313
vn -0.000532 -0.778765 0.627315
vn -0.001175 -0.778520 0.627619
vn 0.783295 -0.000593 0.621650
vn 0.783020 -0.001306 0.621995
vn 0.783523 -0.000001 0.621363
vn 0.783523 -0.000001 0.621363
vn -0.710763 -0.703431 -0.000261
vn -0.710763 -0.703431 -0.000261
vn -0.710763 -0.703431 -0.000261
vn -0.710763 -0.703431 -0.000261
vn -0.784464 -0.001319 0.620173
vn -0.784744 -0.000593 0.619819
vn -0.784972 -0.000004 0.619532
vn -0.784972 -0.000004 0.619532
vn -0.000492 0.774798 -0.632208
vn -0.001185 0.774508 -0.632563
vn 0.001186 0.774512 -0.632558
vn 0.000472 0.774811 -0.632192
vn -0.000000 0.000000 -1.000000
vn 0.000000 -0.000000 -1.000000
vn 0.000000 -0.000000 -1.000000
vn -0.000000 0.000000 -1.000000
vn -0.780382 0.001352 -0.625302
vn -0.780728 0.000538 -0.624871
vn -0.780954 0.000007 -0.624589
vn -0.780953 0.000007 -0.624589
vn 0.000000 -0.000003 1.000000
vn 0.000000 0.000000 1.000000
vn 0.000000 0.000000 1.000000
vn 0.000000 -0.000003 1.000000
vn 0.001254 -0.768411 0.639956
vn 0.000507 -0.768737 0.639565
vn -0.000502 -0.768733 0.639570
vn -0.001303 -0.768384 0.639988
vn 0.777571 -0.000565 0.628795
vn 0.777175 -0.001457 0.629283
vn 0.777823 0.000002 0.628484
vn 0.777823 0.000002 0.628484
vn -0.000000 0.000000 -1.000000
vn 0.000000 -0.000002 -1.000000
vn 0.000000 -0.000002 -1.000000
vn -0.000000 0.000000 -1.000000
vn 0.780287 -0.001384 -0.625420
vn 0.780658 -0.000559 -0.624958
vn 0.780906 -0.000007 -0.624649
vn 0.780906 -0.000007 -0.624649
vn 0.708961 -0.705247 0.000389
vn 0.708961 -0.705247 0.000389
vn 0.708961 -0.705247 0.000389
vn 0.708961 -0.705247 0.000389
vn 0.000502 -0.768645 -0.639676
vn 0.001303 -0.768295 -0.640094
vn -0.001254 -0.768323 -0.640062
vn -0.000507 -0.768649 -0.639671
vn 0.000527 -0.781869 -0.623443
vn 0.001195 -0.781615 -0.623760
vn -0.001190 -0.781620 -0.623754
vn -0.000539 -0.781867 -0.623445
vn 0.784543 -0.001323 -0.620073
vn 0.784820 -0.000600 -0.619723
vn 0.785047 -0.000004 -0.619436
vn 0.785047 -0.000004 -0.619436
vn 0.783735 -0.000001 -0.621096
vn 0.783735 -0.000001 -0.621096
vn 0.783735 -0.000001 -0.621096
vn 0.783735 -0.000001 -0.621096
vn 0.000000 -0.000000 -1.000000
vn -0.000000 0.000000 -1.000000
vn -0.000000 0.000000 -1.000000
vn 0.000000 -0.000000 -1.000000
vn 0.000000 0.000000 1.000000
vn 0.000000 -0.000003 1.000000
vn 0.000000 -0.000003 1.000000
vn 0.000000 0.000000 1.000000
vn -0.780319 -0.001385 0.625381
vn -0.780690 -0.000559 0.624918
vn -0.780938 -0.000007 0.624609
vn -0.780937 -0.000007 0.624609
vn 0.000000 -0.000002 -1.000000
vn -0.000000 0.000000 -1.000000
vn -0.000000 0.000000 -1.000000
vn 0.000000 -0.000002 -1.000000
vn -0.705314 -0.708895 0.000393
vn -0.705314 -0.708895 0.000393
vn -0.705314 -0.708895 0.000393
vn -0.705314 -0.708895 0.000393
vn -0.777534 -0.000565 -0.628840
vn -0.777138 -0.001457 -0.629329
vn -0.777786 0.000002 -0.628529
vn -0.777786 0.000002 -0.628529
vn -0.786329 -0.000588 -0.617808
vn -0.786044 -0.001328 -0.618169
vn -0.786554 -0.000000 -0.617521
vn -0.786554 -0.000000 -0.617521
vn 0.001264 -0.782417 0.622754
vn 0.000564 -0.782684 0.622419
vn -0.000561 -0.782682 0.622421
vn -0.001250 -0.782419 0.622751
vn 0.783557 -0.002109 0.621316
vn 0.783557 -0.002109 0.621316
vn 0.783557 -0.002109 0.621316
vn 0.783557 -0.002109 0.621316
vn 0.709602 -0.704603 -0.000126
vn 0.709602 -0.704603 -0.000126
vn 0.709602 -0.704603 -0.000126
vn 0.709602 -0.704603 -0.000126
vn 0.000554 -0.782532 -0.622610
vn 0.001253 -0.782265 -0.622945
vn -0.001248 -0.782270 -0.622938
vn -0.000566 -0.782530 -0.622613
vn 0.783057 -0.003432 -0.621940
vn 0.783334 -0.002714 -0.621595
vn 0.783564 -0.002117 -0.621308
vn 0.783564 -0.002117 -0.621308
vn -0.785460 0.000468 0.618912
vn -0.785460 0.000468 0.618912
vn -0.785460 0.000468 0.618912
vn -0.785460 0.000468 0.618912
vn -0.713114 -0.701048 -0.000132
vn -0.713114 -0.701048 -0.000132
vn -0.713114 -0.701048 -0.000132
vn -0.713114 -0.701048 -0.000132
vn -0.785518 0.000468 -0.618839
vn -0.785518 0.000468 -0.618839
vn -0.785518 0.000468 -0.618839
vn -0.785518 0.000468 -0.618839
vn -0.000000 0.000000 -1.000000
vn -0.000000 0.000000 -1.000000
vn -0.000000 0.000000 -1.000000
vn -0.000000 0.000000 -1.000000
vn 0.000000 0.000000 1.000000
vn 0.000000 0.000000 1.000000
vn 0.000000 0.000000 1.000000
vn 0.000000 0.000000 1.000000
vn -1.000000 0.000000 0.000000
vn -1.000000 0.000000 0.000000
vn -1.000000 0.000000 0.000000
vn -1.000000 0.000000 0.000000
vn 1.000000 0.000000 -0.000000
vn 1.000000 0.000000 -0.000000
vn 1.000000 0.000000 -0.000000
vn 1.000000 0.000000 -0.000000
vn 0.999996 -0.002705 -0.000001
vn 0.999996 -0.002705 -0.000001
vn 0.999996 -0.002705 -0.000001
vn 0.999996 -0.002705 -0.000001
vn 1.000000 0.000000 0.000000
vn 1.000000 0.000000 0.000000
vn 1.000000 0.000000 0.000000
vn 1.000000 0.000000 0.000000
vn 0.000000 1.000000 0.000000
vn 0.000000 1.000000 0.000000
vn 0.000000 1.000000 0.000000
vn 0.000000 1.000000 0.000000
vn 0.000000 -1.000000 0.000000
vn 0.000000 -1.000000 0.000000
vn 0.000000 -1.000000 0.000000
vn 0.000000 -1.000000 0.000000
vn -0.000000 -1.000000 0.000000
vn -0.000000 -1.000000 0.000000
vn -0.000000 -1.000000 0.000000
vn -0.000000 -1.000000 0.000000
vn -0.000000 -1.000000 -0.000000
vn -0.000000 -1.000000 -0.000000
vn -0.000000 -1.000000 -0.000000
vn -0.000000 -1.000000 -0.000000
vn 1.000000 0.000000 0.000000
vn 1.000000 0.000000 0.000000
vn 1.000000 0.000000 0.000000
vn 1.000000 0.000000 0.000000
vn -1.000000 0.000000 0.000000
vn -1.000000 0.000000 0.000000
vn -1.000000 0.000000 0.000000
vn -1.000000 0.000000 0.000000
vn -1.000000 0.000589 0.000000
vn -1.000000 0.000589 0.000000
vn -1.000000 0.000589 0.000000
vn -1.000000 0.000589 0.000000
vn -1.000000 0.000000 -0.000004
vn -1.000000 0.000000 -0.000004
vn -1.000000 0.000000 -0.000004
vn -1.000000 0.000000 -0.000004
vn 0.000000 0.000000 1.000000
vn 0.000000 0.000000 1.000000
vn -0.000000 0.000000 -1.000000
vn -0.000000 0.000000 -1.000000
vn 0.000000 0.000000 1.000000
vn 0.000000 0.000000 1.000000
vn -0.000000 0.000000 -1.000000
vn -0.000000 0.000000 -1.000000
vn 0.450796 0.463485 -0.762867
vn 0.450796 0.463485 -0.762867
vn 0.472590 -0.471909 0.744285
vn 0.472590 -0.471909 0.744285
vn -0.474857 -0.469650 0.744271
vn -0.474857 -0.469650 0.744271
vn -0.472463 -0.472018 -0.744297
vn -0.472463 -0.472018 -0.744297
s off
g polySurface526 polySurface524
usemtl initialShadingGroup
f 1/98/1 4/101/2 52/102/3 51/99/4
s 1
f 2/2/5 1/5/6 8/13/7 7/7/8
s 2
f 3/1/9 2/2/10 21/3/11 20/4/12
s 1
f 4/6/13 3/1/14 10/12/15 9/14/16
s off
f 5/103/17 8/97/18 28/100/19 27/104/20
s 1
f 6/15/21 5/19/22 12/23/23 11/20/24
s 2
f 7/7/25 6/15/26 15/16/27 14/8/28
s off
f 13/106/29 16/109/30 33/110/31 32/107/32
s 4
f 14/8/33 13/17/34 22/10/35 21/3/36
f 16/22/37 15/16/38 18/21/39 17/24/40
s off
f 19/111/41 22/105/42 55/108/43 54/112/44
s 4
f 20/4/45 19/9/46 24/18/47 23/11/48
s 5
f 25/26/49 28/30/50 51/38/51 50/31/52
s 6
f 26/25/53 25/26/54 42/27/55 41/28/56
s 5
f 27/29/57 26/25/58 30/35/59 29/37/60
s 7
f 31/49/61 34/50/62 74/51/63 73/52/64
s 8
f 32/53/65 31/49/66 56/59/67 55/61/68
f 34/50/69 33/54/70 44/62/71 43/55/72
s 9
f 35/73/73 38/74/74 82/75/75 81/76/76
s 10
f 36/77/77 35/73/78 46/83/79 45/85/80
s off
f 37/122/81 36/125/82 40/126/83 39/123/84
s 10
f 38/74/85 37/78/86 58/86/87 57/79/88
s 11
f 39/33/89 42/27/90 63/32/91 62/41/92
f 41/28/93 40/34/94 48/42/95 47/36/96
s off
f 49/39/97 52/43/98 66/47/99 65/44/100
s 6
f 50/31/101 49/39/102 64/40/103 63/32/104
s 7
f 53/65/105 56/59/106 86/60/107 85/66/108
s 8
f 54/67/109 53/65/110 68/69/111 67/71/112
s 9
f 57/79/113 60/87/114 92/88/115 91/80/116
s off
f 59/127/117 58/121/118 62/124/119 61/128/120
s 10
f 60/87/121 59/91/122 70/95/123 69/92/124
s 11
f 61/46/125 64/40/126 72/45/127 71/48/128
s 14
f 73/52/129 76/58/130 87/64/131 86/60/132
s off
f 75/57/133 74/51/134 78/56/135 77/63/136
f 76/114/137 75/117/138 80/118/139 79/115/140
s 15
f 79/81/141 82/75/142 91/80/143 90/89/144
f 81/76/145 80/82/146 84/90/147 83/84/148
s off
f 85/66/149 88/68/150 94/72/151 93/70/152
f 88/119/153 87/113/154 90/116/155 89/120/156
f 89/94/157 92/88/158 96/93/159 95/96/160
s 6
f 30/35/161 26/25/53 41/28/56 47/36/162
f 25/26/54 50/31/101 63/32/104 42/27/55
f 49/39/102 65/44/163 72/45/164 64/40/103
s 2
f 6/15/26 11/20/165 18/21/166 15/16/27
f 7/7/25 14/8/28 21/3/11 2/2/10
f 3/1/9 20/4/12 23/11/167 10/12/168
s off
f 5/129/169 27/130/170 29/131/171 12/132/172
f 16/133/173 17/134/174 44/135/175 33/136/176
f 75/137/177 77/138/178 84/139/179 80/140/180
f 36/141/181 45/142/182 48/143/183 40/144/184
f 8/97/185 1/98/186 51/99/187 28/100/188
f 22/105/189 13/106/190 32/107/191 55/108/192
f 87/113/193 76/114/194 79/115/195 90/116/196
f 58/121/197 37/122/198 39/123/199 62/124/200
f 4/145/201 9/146/202 66/147/203 52/148/204
f 24/149/205 19/150/206 54/151/207 67/152/208
f 94/153/209 88/154/210 89/155/211 95/156/212
f 70/157/213 59/158/214 61/159/215 71/160/216
s 7
f 34/50/62 43/55/217 78/56/218 74/51/63
s 9
f 46/83/219 35/73/73 81/76/76 83/84/220
s 7
f 56/59/106 31/49/61 73/52/64 86/60/107
s 9
f 38/74/74 57/79/113 91/80/116 82/75/75
s 7
f 68/69/221 53/65/105 85/66/108 93/70/222
s 9
f 60/87/114 69/92/223 96/93/224 92/88/115
s 1
f 1/5/6 2/2/5 3/1/14 4/6/13
f 5/19/22 6/15/21 7/7/8 8/13/7
s 4
f 13/17/34 14/8/33 15/16/38 16/22/37
f 19/9/46 20/4/45 21/3/36 22/10/35
s 5
f 25/26/49 26/25/58 27/29/57 28/30/50
s 8
f 31/49/66 32/53/65 33/54/70 34/50/69
s 10
f 35/73/78 36/77/77 37/78/86 38/74/85
s 11
f 39/33/89 40/34/94 41/28/93 42/27/90
s 5
f 49/39/225 50/31/52 51/38/51 52/43/226
s 8
f 53/65/110 54/67/109 55/61/68 56/59/67
s 10
f 57/79/88 58/86/87 59/91/122 60/87/121
s 11
f 61/46/125 62/41/92 63/32/91 64/40/126
s 14
f 73/52/129 74/51/227 75/57/228 76/58/130
s 15
f 79/81/141 80/82/146 81/76/145 82/75/142
s 14
f 85/66/229 86/60/132 87/64/131 88/68/230
s 15
f 89/94/231 90/89/144 91/80/143 92/88/232
