# This file uses centimeters as units for non-parametric coordinates.

mtllib sponge.mtl
g default
v -65.570826 5.817569 -34.510859
v -65.061170 5.817569 -34.510859
v -65.570826 5.925465 -34.510859
v -65.061170 5.925465 -34.510859
v -65.570826 5.925465 -35.331475
v -65.061170 5.925465 -35.331475
v -65.570826 5.817569 -35.331475
v -65.061170 5.817569 -35.331475
v -65.570826 5.896049 -35.331475
v -65.570826 5.896049 -34.510859
v -65.061170 5.896049 -34.510859
v -65.061170 5.896049 -35.331475
vt 0.001890 0.908181
vt 0.331370 0.908181
vt 0.331370 0.998008
vt 0.001890 0.998008
vt 0.001890 0.668528
vt 0.331370 0.668528
vt 0.338705 0.908181
vt 0.668185 0.908181
vt 0.668185 0.998008
vt 0.338705 0.998008
vt 0.338705 0.668528
vt 0.668185 0.668528
vt 0.338705 0.001992
vt 0.668185 0.001992
vt 0.668185 0.331472
vt 0.338705 0.331472
vt 0.282356 0.335260
vt 0.611836 0.335260
vt 0.611836 0.664740
vt 0.282356 0.664740
vt 0.001891 0.241645
vt 0.331370 0.241645
vt 0.331370 0.331472
vt 0.001891 0.331472
vt 0.001891 0.001992
vt 0.331370 0.001992
vt 0.617659 0.335260
vt 0.947139 0.335260
vt 0.947139 0.425087
vt 0.617659 0.425087
vt 0.947139 0.664740
vt 0.617659 0.664740
vn 0.000000 0.000000 1.000000
vn 0.000000 0.000000 1.000000
vn 0.000000 0.000000 1.000000
vn 0.000000 0.000000 1.000000
vn 0.000000 1.000000 0.000000
vn 0.000000 1.000000 0.000000
vn 0.000000 1.000000 0.000000
vn 0.000000 1.000000 0.000000
vn 0.000000 0.000000 -1.000000
vn 0.000000 0.000000 -1.000000
vn 0.000000 0.000000 -1.000000
vn 0.000000 0.000000 -1.000000
vn 0.000000 -1.000000 0.000000
vn 0.000000 -1.000000 0.000000
vn 0.000000 -1.000000 0.000000
vn 0.000000 -1.000000 0.000000
vn 1.000000 0.000000 0.000000
vn 1.000000 0.000000 0.000000
vn 1.000000 0.000000 0.000000
vn 1.000000 0.000000 0.000000
vn -1.000000 0.000000 0.000000
vn -1.000000 0.000000 0.000000
vn -1.000000 0.000000 0.000000
vn -1.000000 0.000000 0.000000
vn -1.000000 0.000000 0.000000
vn -1.000000 0.000000 0.000000
vn 0.000000 0.000000 1.000000
vn 0.000000 0.000000 1.000000
vn 1.000000 0.000000 0.000000
vn 1.000000 0.000000 0.000000
vn 0.000000 0.000000 -1.000000
vn 0.000000 0.000000 -1.000000
s 1
g pCube336
usemtl initialShadingGroup
f 10/21/1 11/22/2 4/23/3 3/24/4
s off
f 3/13/5 4/14/6 6/15/7 5/16/8
s 2
f 5/27/9 6/28/10 12/29/11 9/30/12
s off
f 7/17/13 8/18/14 2/19/15 1/20/16
s 3
f 11/1/17 12/2/18 6/3/19 4/4/20
s 4
f 9/7/21 10/8/22 3/9/23 5/10/24
f 7/11/25 1/12/26 10/8/22 9/7/21
s 1
f 1/25/27 2/26/28 11/22/2 10/21/1
s 3
f 2/5/29 8/6/30 12/2/18 11/1/17
s 2
f 9/30/12 12/29/11 8/31/31 7/32/32
